<svg xmlns="http://www.w3.org/2000/svg" xmlns:xlink="http://www.w3.org/1999/xlink" fill="none" version="1.1" width="96" height="96" viewBox="0 0 96 96"><defs><clipPath id="master_svg0_410_73343"><rect x="0" y="0" width="96" height="96" rx="0"/></clipPath><filter id="master_svg1_410_73359" filterUnits="objectBoundingBox" color-interpolation-filters="sRGB" x="-0.09661820435849103" y="-0.1291512681963621" width="1.1709741553228343" height="1.2952028987345419"><feFlood flood-opacity="0" result="BackgroundImageFix"/><feColorMatrix in="SourceAlpha" type="matrix" values="0 0 0 0 0 0 0 0 0 0 0 0 0 0 0 0 0 0 127 0"/><feOffset dy="0.9600002765655518" dx="-1"/><feGaussianBlur stdDeviation="1.9200005531311035"/><feColorMatrix type="matrix" values="0 0 0 0 0 0 0 0 0 0 0 0 0 0 0 0 0 0 0.30000001192092896 0"/><feBlend mode="normal" in2="BackgroundImageFix" result="effect1_dropShadow"/><feBlend mode="normal" in="SourceGraphic" in2="effect1_dropShadow" result="shape"/></filter><linearGradient x1="0" y1="0.5192239880561829" x2="1.0000823797301113" y2="0.5127748902744145" id="master_svg2_268_60171"><stop offset="0%" stop-color="#E4E6EE" stop-opacity="1"/><stop offset="57.25290775299072%" stop-color="#FFFFFF" stop-opacity="1"/><stop offset="100%" stop-color="#E4E6EE" stop-opacity="1"/></linearGradient><linearGradient x1="0.8525502681732178" y1="0.2616514563560486" x2="0.16291326394165895" y2="0.4730746030894416" id="master_svg3_268_60192"><stop offset="0%" stop-color="#FCFBFB" stop-opacity="1"/><stop offset="100%" stop-color="#F0F0F2" stop-opacity="1"/></linearGradient><linearGradient x1="1" y1="1" x2="-0.06805037626633288" y2="0.2452905489854647" id="master_svg4_268_60199"><stop offset="0%" stop-color="#E1E3E5" stop-opacity="1"/><stop offset="100%" stop-color="#F7F9FC" stop-opacity="1"/></linearGradient><linearGradient x1="0.13315187394618988" y1="0.37836089730262756" x2="0.572321768427952" y2="1.2225023001933648" id="master_svg5_268_60187"><stop offset="0%" stop-color="#4D506C" stop-opacity="1"/><stop offset="100%" stop-color="#868793" stop-opacity="1"/></linearGradient><linearGradient x1="0.6779448390007019" y1="0.9506561756134033" x2="0.49243637723311956" y2="-0.10110998511201177" id="master_svg6_268_60166"><stop offset="0%" stop-color="#F7F9FC" stop-opacity="1"/><stop offset="100%" stop-color="#E6E8EB" stop-opacity="1"/><stop offset="100%" stop-color="#E1E3E5" stop-opacity="1"/></linearGradient><filter id="master_svg7_410_73352" filterUnits="objectBoundingBox" color-interpolation-filters="sRGB" x="0" y="0" width="1" height="1"><feFlood flood-opacity="0" result="BackgroundImageFix"/><feBlend mode="normal" in="SourceGraphic" in2="BackgroundImageFix" result="shape"/><feColorMatrix in="SourceAlpha" type="matrix" result="hardAlpha" values="0 0 0 0 0 0 0 0 0 0 0 0 0 0 0 0 0 0 127 0"/><feOffset dy="-0.3333333432674408" dx="-0.3333333432674408"/><feGaussianBlur stdDeviation="0"/><feComposite in2="hardAlpha" operator="arithmetic" k2="-1" k3="1"/><feColorMatrix type="matrix" values="0 0 0 0 1 0 0 0 0 1 0 0 0 0 1 0 0 0 0.5400000214576721 0"/><feBlend mode="normal" in2="shape" result="effect1_innerShadow"/></filter><linearGradient x1="1" y1="0.5" x2="0" y2="0.5" id="master_svg8_268_60130"><stop offset="0%" stop-color="#4D506C" stop-opacity="1"/><stop offset="100%" stop-color="#868793" stop-opacity="1"/></linearGradient><filter id="master_svg9_410_73350" filterUnits="objectBoundingBox" color-interpolation-filters="sRGB" x="0" y="0" width="1" height="1"><feFlood flood-opacity="0" result="BackgroundImageFix"/><feBlend mode="normal" in="SourceGraphic" in2="BackgroundImageFix" result="shape"/><feColorMatrix in="SourceAlpha" type="matrix" result="hardAlpha" values="0 0 0 0 0 0 0 0 0 0 0 0 0 0 0 0 0 0 127 0"/><feOffset dy="-0.3333333432674408" dx="-0.3333333432674408"/><feGaussianBlur stdDeviation="0"/><feComposite in2="hardAlpha" operator="arithmetic" k2="-1" k3="1"/><feColorMatrix type="matrix" values="0 0 0 0 1 0 0 0 0 1 0 0 0 0 1 0 0 0 0.5400000214576721 0"/><feBlend mode="normal" in2="shape" result="effect1_innerShadow"/></filter><linearGradient x1="1" y1="0.5" x2="0" y2="0.5" id="master_svga_268_60130"><stop offset="0%" stop-color="#4D506C" stop-opacity="1"/><stop offset="100%" stop-color="#868793" stop-opacity="1"/></linearGradient><filter id="master_svgb_410_73346" filterUnits="objectBoundingBox" color-interpolation-filters="sRGB" x="0" y="0" width="1" height="1"><feFlood flood-opacity="0" result="BackgroundImageFix"/><feBlend mode="normal" in="SourceGraphic" in2="BackgroundImageFix" result="shape"/><feColorMatrix in="SourceAlpha" type="matrix" result="hardAlpha" values="0 0 0 0 0 0 0 0 0 0 0 0 0 0 0 0 0 0 127 0"/><feOffset dy="-0.3333333432674408" dx="-0.3333333432674408"/><feGaussianBlur stdDeviation="0"/><feComposite in2="hardAlpha" operator="arithmetic" k2="-1" k3="1"/><feColorMatrix type="matrix" values="0 0 0 0 1 0 0 0 0 1 0 0 0 0 1 0 0 0 0.5400000214576721 0"/><feBlend mode="normal" in2="shape" result="effect1_innerShadow"/></filter><linearGradient x1="1" y1="0.5" x2="0" y2="0.5" id="master_svgc_268_60130"><stop offset="0%" stop-color="#4D506C" stop-opacity="1"/><stop offset="100%" stop-color="#868793" stop-opacity="1"/></linearGradient><linearGradient x1="1" y1="0.5" x2="0" y2="0.5" id="master_svgd_268_60130"><stop offset="0%" stop-color="#4D506C" stop-opacity="1"/><stop offset="100%" stop-color="#868793" stop-opacity="1"/></linearGradient><filter id="master_svge_410_73355" filterUnits="objectBoundingBox" color-interpolation-filters="sRGB" x="0" y="0" width="1" height="1"><feFlood flood-opacity="0" result="BackgroundImageFix"/><feBlend mode="normal" in="SourceGraphic" in2="BackgroundImageFix" result="shape"/><feColorMatrix in="SourceAlpha" type="matrix" result="hardAlpha" values="0 0 0 0 0 0 0 0 0 0 0 0 0 0 0 0 0 0 127 0"/><feOffset dy="-0.6666666865348816" dx="-0.6666666865348816"/><feGaussianBlur stdDeviation="0"/><feComposite in2="hardAlpha" operator="arithmetic" k2="-1" k3="1"/><feColorMatrix type="matrix" values="0 0 0 0 1 0 0 0 0 1 0 0 0 0 1 0 0 0 0.5400000214576721 0"/><feBlend mode="normal" in2="shape" result="effect1_innerShadow"/></filter><linearGradient x1="1" y1="0.5" x2="0" y2="0.5" id="master_svgf_268_60130"><stop offset="0%" stop-color="#4D506C" stop-opacity="1"/><stop offset="100%" stop-color="#868793" stop-opacity="1"/></linearGradient><linearGradient x1="0" y1="0.5" x2="1" y2="0.5" id="master_svgg_3_1469"><stop offset="0%" stop-color="#FF8C00" stop-opacity="1"/><stop offset="100%" stop-color="#FF6E00" stop-opacity="1"/></linearGradient><linearGradient x1="1" y1="0.5" x2="0" y2="0.5" id="master_svgh_3_1472"><stop offset="0%" stop-color="#FFFFFF" stop-opacity="1"/><stop offset="100%" stop-color="#FFFFFF" stop-opacity="0.699999988079071"/></linearGradient><linearGradient x1="1" y1="0.5" x2="0" y2="0.5" id="master_svgi_3_1466"><stop offset="0%" stop-color="#FFFFFF" stop-opacity="0.699999988079071"/><stop offset="100%" stop-color="#FFFFFF" stop-opacity="1"/></linearGradient><linearGradient x1="1" y1="0.5" x2="0" y2="0.5" id="master_svgj_3_1472"><stop offset="0%" stop-color="#FFFFFF" stop-opacity="1"/><stop offset="100%" stop-color="#FFFFFF" stop-opacity="0.699999988079071"/></linearGradient><linearGradient x1="1" y1="0.5" x2="0" y2="0.5" id="master_svgk_268_60130"><stop offset="0%" stop-color="#4D506C" stop-opacity="1"/><stop offset="100%" stop-color="#868793" stop-opacity="1"/></linearGradient></defs><g clip-path="url(#master_svg0_410_73343)"><g><g filter="url(#master_svg1_410_73359)"><path d="M92.96559138031006,59.997115783691406Q92.95349138031006,64.1971157836914,92.96549138031006,66.3331157836914C92.97759138031006,68.46911578369141,91.58549138031006,70.6051157836914,88.80149138031005,72.23711578369141L58.36949138031006,89.90111578369141C52.80149138031006,93.1651157836914,43.68149138031006,93.1651157836914,38.017491380310055,89.90111578369141L7.393461380310058,72.23711578369141C4.5614613803100585,70.6051157836914,3.1454652803100585,68.46911578369141,3.1334677124100585,66.3331157836914Q3.1214700803100586,64.1971157836914,3.1333913803100586,60.4771157836914L37.72949138031006,42.76511578369141C43.297491380310056,39.50111378369141,52.41749138031006,39.50111378369141,58.081491380310055,42.76511578369141L92.96559138031006,59.997115783691406Z" fill="url(#master_svg2_268_60171)" fill-opacity="1" style="mix-blend-mode:passthrough"/></g><g><path d="M88.70945036468505,54.4291157836914C94.37345036468506,57.69311578369141,94.37345036468506,62.973115783691405,88.80545036468506,66.23711578369141L58.373450364685056,83.90111578369141C52.80545036468506,87.1651157836914,43.68545036468506,87.1651157836914,38.02145036468506,83.90111578369141L7.301430364685059,66.23711578369141C1.6374303646850585,62.973115783691405,1.6374303646850585,57.69311578369141,7.205430364685059,54.4291157836914L37.63745036468506,36.76511578369141C43.205450364685056,33.50111378369141,52.32545036468506,33.50111378369141,57.989450364685055,36.76511578369141L88.70945036468505,54.4291157836914Z" fill="url(#master_svg3_268_60192)" fill-opacity="1" style="mix-blend-mode:passthrough"/></g></g><g><g transform="matrix(0.8660253882408142,0.5,0,1,2.564242811871509,-9.569883346557617)"><rect x="19.139766693115234" y="30.2996826171875" width="24.759843826293945" height="33.8249626159668" rx="0" fill="#D5D9E0" fill-opacity="1" style="mix-blend-mode:passthrough"/></g><g transform="matrix(0.8660253882408142,-0.5,0,1,5.422406022820496,20.236692428588867)"><rect x="40.473384857177734" y="43.333251953125" width="41.80253219604492" height="33.23844909667969" rx="0" fill="url(#master_svg4_268_60199)" fill-opacity="1"/></g><g transform="matrix(0.8660253882408142,0.5,-0.866025447845459,0.5,14.927158846939847,-23.364622116088867)"><path d="M55.395870208740234,50.5318259765625L57.48164020874023,52.6174259765625L82.24147020874024,52.6174259765625L82.00457020874023,10.7135059765625L79.95707020874023,8.6666259765625L55.395870208740234,50.5318259765625Z" fill="url(#master_svg5_268_60187)" fill-opacity="1"/></g><g transform="matrix(0.8660253882408142,0.5,-0.866025447845459,0.5,14.979319734082083,-23.374326705932617)"><rect x="55.464839935302734" y="8.7161865234375" width="24.565336227416992" height="41.9242057800293" rx="0" fill="url(#master_svg6_268_60166)" fill-opacity="1"/></g><g transform="matrix(0.8660253882408142,-0.5,0,1,6.520091809766882,24.333311080932617)" filter="url(#master_svg7_410_73352)"><rect x="48.666622161865234" y="39.1763916015625" width="0.6666666865348816" height="32.73210144042969" rx="0.3333333432674408" fill="url(#master_svg8_268_60130)" fill-opacity="1"/></g><g transform="matrix(0.8660253882408142,-0.5,0,1,7.681248723207091,28.666807174682617)" filter="url(#master_svg9_410_73350)"><rect x="57.333614349365234" y="34.0892333984375" width="0.6666666865348816" height="32.72071075439453" rx="0.3333333432674408" fill="url(#master_svga_268_60130)" fill-opacity="1"/></g><g transform="matrix(0.8660253882408142,-0.5,0,1,8.842323865033677,32.99999809265137)" filter="url(#master_svgb_410_73346)"><rect x="65.99999618530273" y="29.2398681640625" width="0.6666666865348816" height="32.56023025512695" rx="0.3333333432674408" fill="url(#master_svgc_268_60130)" fill-opacity="1"/></g><g transform="matrix(0.8660253882408142,-0.5,0,1,5.422389668497772,20.236631393432617)"><rect x="40.473262786865234" y="56.9046630859375" width="41.80222702026367" height="2.257782459259033" rx="0" fill="url(#master_svgd_268_60130)" fill-opacity="1"/></g><g transform="matrix(0.8660253882408142,0.5,0,1,2.9474409476295023,-10.999998092651367)" filter="url(#master_svge_410_73355)"><rect x="21.999996185302734" y="55.3333740234375" width="18.042749404907227" height="6.625650405883789" rx="1.3333333730697632" fill="url(#master_svgf_268_60130)" fill-opacity="1"/></g><g transform="matrix(0.8660253882408142,-0.5,0,1,9.37822231207042,34.99999809265137)"><g><path d="M71.70925618530273,29.3333740234375L73.62407618530274,29.3333740234375C74.21841618530273,29.3333740234375,74.43394618530273,29.4048312234375,74.65122618530273,29.5390130234375C74.86850618530273,29.6731950234375,75.03903618530273,29.8701010234375,75.15524618530273,30.1209990234375C75.27144618530274,30.3718940234375,75.33332618530274,30.6207640234375,75.33332618530274,31.3070540234375L75.33332618530274,33.5180940234375C75.33332618530274,34.2043940234375,75.27144618530274,34.4532540234375,75.15524618530273,34.704154023437496C75.03903618530273,34.9550540234375,74.86850618530273,35.1519540234375,74.65122618530273,35.2861340234375C74.43394618530273,35.4203240234375,74.21841618530273,35.4917740234375,73.62407618530274,35.4917740234375L71.70925618530273,35.4917740234375C71.11490618530273,35.4917740234375,70.89938318530274,35.4203240234375,70.68209918530273,35.2861340234375C70.46481518530274,35.1519540234375,70.29428918530273,34.9550540234375,70.17808418530274,34.704154023437496C70.06187988530273,34.4532540234375,69.99999618530273,34.2043940234375,69.99999618530273,33.5180940234375L69.99999618530273,31.3070540234375C69.99999618530273,30.6207640234375,70.06187988530273,30.3718940234375,70.17808418530274,30.1209990234375C70.29428918530273,29.8701010234375,70.46481518530274,29.6731950234375,70.68209918530273,29.5390130234375C70.89938318530274,29.4048312234375,71.11490618530273,29.3333740234375,71.70925618530273,29.3333740234375Z" fill-rule="evenodd" fill="url(#master_svgg_3_1469)" fill-opacity="1"/></g><g><path d="M72.50092066286086,31.559070791374207L72.50092066286086,31.972354791374208Q72.50092066286086,32.005724791374206,72.51369066286087,32.03655479137421Q72.52646066286087,32.06738479137421,72.55005066286087,32.09097479137421Q72.57365066286087,32.11457479137421,72.60448066286087,32.127344791374206Q72.63531066286087,32.14011479137421,72.66868066286087,32.14011479137421Q72.70205066286087,32.14011479137421,72.73288066286086,32.127344791374206Q72.76371066286087,32.11457479137421,72.78730066286087,32.09097479137421Q72.81090066286087,32.06738479137421,72.82367066286088,32.03655479137421Q72.83644066286087,32.005724791374206,72.83644066286087,31.972354791374208L72.83644066286087,31.490742791374206Q72.83644066286087,31.379808791374206,72.74601066286087,31.319334791374207L71.91574366286088,30.764123791374207Q71.80655866286087,30.691110791374207,71.69737566286086,30.764124791374208L70.86711296286087,31.319334791374207Q70.77667866286087,31.379809791374207,70.77667866286087,31.490742791374206L70.77667866286087,32.60116479137421Q70.77667866286087,32.712094791374206,70.86711276286087,32.772574791374204L71.20675066286087,32.9996947913742Q71.23448966286087,33.01824479137421,71.26721566286086,33.02476479137421Q71.29994166286087,33.031284791374205,71.33267366286087,33.024794791374205Q71.36540466286087,33.01829479137421,71.39315766286087,32.999764791374204Q71.42091066286088,32.981234791374206,71.43946066286087,32.953494791374204Q71.47808766286087,32.89573479137421,71.46455666286087,32.827574791374204Q71.45102566286087,32.759414791374205,71.39326166286087,32.72078479137421L71.11220266286087,32.532834791374206L71.11220266286087,31.559070791374207L71.80655966286088,31.094742791374205L72.50092066286086,31.559070791374207Z" fill-rule="evenodd" fill="url(#master_svgh_3_1472)" fill-opacity="1"/></g><g><path d="M71.97230561438751,32.702874011947635L72.31189561438751,32.47578501194763Q72.3396346143875,32.45723501194763,72.35816361438751,32.42948251194763Q72.37669261438751,32.40172951194763,72.38319061438752,32.368998311947635Q72.38968861438751,32.33626709194763,72.3831666143875,32.30354071194763Q72.37664361438752,32.27081441194763,72.35809461438751,32.243075211947634Q72.31946661438751,32.18531101194763,72.25130761438751,32.17178001194763Q72.1831486143875,32.15824901194763,72.12538461438751,32.19687601194763L71.72721591438751,32.463138011947635Q71.63678161438752,32.52361401194763,71.63678161438752,32.634546011947634L71.63678161438752,33.74497201194763Q71.63678161438752,33.855902011947634,71.72721571438751,33.91637201194763L72.55747961438752,34.471592011947635Q72.66666261438752,34.54460201194763,72.77584861438751,34.47158201194763L73.60611361438751,33.91637201194763Q73.69654361438751,33.855902011947634,73.69654361438751,33.74497201194763L73.69654361438751,32.634546011947634Q73.69654361438751,32.52361301194763,73.60611361438751,32.463138011947635L73.2041936143875,32.19436801194763Q73.17645361438751,32.175818011947634,73.14372361438751,32.16929601194763Q73.11099361438751,32.162773011947635,73.07826361438751,32.16927101194763Q73.04553361438751,32.17576901194763,73.01778361438751,32.19429801194763Q72.99003361438751,32.21282701194763,72.97148361438751,32.240566511947634Q72.95293361438752,32.26830571194763,72.9464036143875,32.30103201194763Q72.93988361438751,32.33375837404763,72.94638361438751,32.366489611947635Q72.95288361438752,32.399220711947635,72.97141361438752,32.42697371194763Q72.98994361438751,32.45472701194763,73.01768361438751,32.47327601194763L73.3610236143875,32.702874011947635L73.3610236143875,33.676642011947635L72.66666261438752,34.14097201194763L71.97230561438751,33.676642011947635L71.97230561438751,32.702874011947635Z" fill-rule="evenodd" fill="url(#master_svgi_3_1466)" fill-opacity="1"/></g><g><path d="M74.22112686393737,32.532834791374206L73.91799686393738,32.73554479137421Q73.86023686393737,32.77417479137421,73.84669686393738,32.842334791374206Q73.83316686393738,32.91048479137421,73.87179686393738,32.96825479137421Q73.89034686393738,32.99599479137421,73.91809686393738,33.01452479137421Q73.94585686393738,33.033054791374205,73.97858686393738,33.039544791374205Q74.01131686393738,33.04604479137421,74.04403686393738,33.039524791374205Q74.07676686393738,33.0330047913742,74.10450686393737,33.014454791374206L74.46621686393738,32.772574791374204Q74.55664686393737,32.712094791374206,74.55664686393737,32.60116479137421L74.55664686393737,31.490742791374206Q74.55664686393737,31.379808791374206,74.46620686393737,31.319333791374206L73.63594986393738,30.764123791374207Q73.52676486393737,30.691110791374207,73.41758186393737,30.764124791374208L72.58731916393738,31.319334791374207Q72.49688486393738,31.379809791374207,72.49688486393738,31.490742791374206L72.49688486393738,31.972354791374208Q72.49688486393738,32.005724791374206,72.50965486393739,32.03655479137421Q72.52242486393737,32.06738479137421,72.54602086393737,32.09097479137421Q72.56961726393737,32.11457479137421,72.60044706393738,32.127344791374206Q72.63127686393737,32.14011479137421,72.66464686393738,32.14011479137421Q72.69801686393738,32.14011479137421,72.72884666393738,32.127344791374206Q72.75967646393738,32.11457479137421,72.78327286393738,32.09097479137421Q72.80686886393738,32.06738479137421,72.81963886393737,32.03655479137421Q72.83240886393737,32.005724791374206,72.83240886393737,31.972354791374208L72.83240886393737,31.559070791374207L73.52676586393738,31.094742791374205L74.22112686393737,31.559070791374207L74.22112686393737,32.532834791374206Z" fill-rule="evenodd" fill="url(#master_svgj_3_1472)" fill-opacity="1"/></g></g><g transform="matrix(0.8660253882408142,0.5,0,1,3.661977661786068,-13.666685104370117)"><path d="M28.911540208740234,49.4373740234375L27.581481208740236,49.4373740234375C27.407829708740234,49.4373740234375,27.288041408740234,49.1697640234375,27.349835608740236,48.9200840234375L28.671470208740235,43.5791060234375C28.708100208740234,43.4311460234375,28.800230208740235,43.3333740234375,28.903040208740233,43.3333740234375L31.133250208740236,43.3333740234375C31.309210208740232,43.3333740234375,31.429160208740235,43.6078510234375,31.362740208740234,43.8587980234375L30.593210208740235,46.7668840234375L32.04190020874023,46.7668840234375C32.254960208740236,46.7668840234375,32.368630208740235,47.1535440234375,32.22811020874023,47.4000340234375L28.676260208740235,53.6310740234375C28.503600208740234,53.9340740234375,28.183480208740235,53.6715740234375,28.250479208740234,53.2819540234375L28.911540208740234,49.4373740234375Z" fill="url(#master_svgk_268_60130)" fill-opacity="1"/></g></g></g></svg>