<svg xmlns="http://www.w3.org/2000/svg" xmlns:xlink="http://www.w3.org/1999/xlink" fill="none" version="1.1" width="96" height="96" viewBox="0 0 96 96"><defs><clipPath id="master_svg0_408_72520"><rect x="0" y="0" width="96" height="96" rx="0"/></clipPath><filter id="master_svg1_408_72524" filterUnits="objectBoundingBox" color-interpolation-filters="sRGB" x="-0.09661820435849103" y="-0.1291512681963621" width="1.1709741553228343" height="1.2952028987345419"><feFlood flood-opacity="0" result="BackgroundImageFix"/><feColorMatrix in="SourceAlpha" type="matrix" values="0 0 0 0 0 0 0 0 0 0 0 0 0 0 0 0 0 0 127 0"/><feOffset dy="0.9600002765655518" dx="-1"/><feGaussianBlur stdDeviation="1.9200005531311035"/><feColorMatrix type="matrix" values="0 0 0 0 0 0 0 0 0 0 0 0 0 0 0 0 0 0 0.30000001192092896 0"/><feBlend mode="normal" in2="BackgroundImageFix" result="effect1_dropShadow"/><feBlend mode="normal" in="SourceGraphic" in2="effect1_dropShadow" result="shape"/></filter><linearGradient x1="0" y1="0.5192239880561829" x2="1.0000823797301113" y2="0.5127748902744145" id="master_svg2_268_60108"><stop offset="0.29040605295449495%" stop-color="#E4E6EE" stop-opacity="1"/><stop offset="26.92350745201111%" stop-color="#E5E7EE" stop-opacity="1"/><stop offset="57.25290775299072%" stop-color="#FFFFFF" stop-opacity="1"/><stop offset="90.13984799385071%" stop-color="#E4E6EE" stop-opacity="1"/></linearGradient><linearGradient x1="0.6949302554130554" y1="0.11147855222225189" x2="0.061971305610484584" y2="0.39077229640800215" id="master_svg3_268_60113"><stop offset="0%" stop-color="#FCFCFB" stop-opacity="1"/><stop offset="100%" stop-color="#F0F0F2" stop-opacity="1"/></linearGradient></defs><g clip-path="url(#master_svg0_408_72520)"><g><g filter="url(#master_svg1_408_72524)"><path d="M92.96546930999756,59.996993713378906Q92.95336930999756,64.1969937133789,92.96536930999756,66.3329937133789C92.97746930999756,68.46899371337891,91.58536930999756,70.6049937133789,88.80136930999755,72.23699371337891L58.36936930999756,89.90099371337891C52.80136930999756,93.1649937133789,43.68136930999756,93.1649937133789,38.017369309997555,89.90099371337891L7.393339309997558,72.23699371337891C4.5613393099975585,70.6049937133789,3.1453432099975585,68.46899371337891,3.1333456420975585,66.3329937133789Q3.1213480099975586,64.1969937133789,3.1332693099975586,60.4769937133789L37.72936930999756,42.76499371337891C43.297369309997556,39.50099171337891,52.41736930999756,39.50099171337891,58.081369309997555,42.76499371337891L92.96546930999756,59.996993713378906Z" fill="url(#master_svg2_268_60108)" fill-opacity="1" style="mix-blend-mode:passthrough"/></g><g><path d="M88.70957243499755,54.4289937133789C94.37357243499756,57.69299371337891,94.37357243499756,62.972993713378905,88.80557243499756,66.23699371337891L58.373572434997556,83.90099371337891C52.80557243499756,87.1649937133789,43.68557243499756,87.1649937133789,38.02157243499756,83.90099371337891L7.301552434997559,66.23699371337891C1.6375524349975585,62.972993713378905,1.6375524349975585,57.69299371337891,7.205552434997559,54.4289937133789L37.63757243499756,36.76499371337891C43.205572434997556,33.50099171337891,52.32557243499756,33.50099171337891,57.989572434997555,36.76499371337891L88.70957243499755,54.4289937133789Z" fill="url(#master_svg3_268_60113)" fill-opacity="1" style="mix-blend-mode:passthrough"/></g></g><g><g transform="matrix(0.865993082523346,-0.5000559687614441,0,1,6.340333149244543,23.659386357932817)"><path d="M66.9136765625,76.51881953125C66.5024765625,76.51881953125,66.1732765625,76.18901953125,66.0911765625,75.63941953125L54.6272465625,29.52967953125L49.3639165625,29.52967953125L48.9706965625,75.60961953124999C48.8886265625,76.15911953125,48.4774865625,76.59871953125,47.9842335625,76.48881953125C47.5723905625,76.37891953125,47.2440608625,75.82941953125,47.3261346625,75.17001953125L47.8827815625,28.21194953125C47.9656255625,27.66239753125,48.2945895625,27.33261710475,48.7057265625,27.33261710475L55.2854365625,27.33261710475C55.6966065625,27.33261710475,56.0255665625,27.66239853125,56.1083765625,28.21194953125L67.7360765625,75.19981953125C67.8181765625,75.74931953125,67.5715765625,76.40891953125,67.0775765625,76.51881953125L66.9136765625,76.51881953125Z" fill="#81828D" fill-opacity="1" style="mix-blend-mode:passthrough"/></g><g transform="matrix(0.865993082523346,-0.5000559687614441,0,1,6.151362457021605,22.954229308234062)"><path d="M60.9394203125,40.65230203125L48.8655203125,40.56973203125C48.3730103125,40.56973203125,48.0446803125,40.13007203125,48.0446803125,39.47063203125C48.0446803125,38.81119203125,48.3730103125,38.37158203125,48.8655203125,38.37158203125L60.9394203125,38.45412593125C61.4319203125,38.45412593125,61.760020312500004,38.89414803125,61.760020312500004,39.55359203125C61.760020312500004,40.21303203125,61.4319203125,40.65230203125,60.9394203125,40.65230203125ZM66.4931203125,58.15478203125L46.727073312499996,58.15478203125C46.2330893125,58.15478203125,45.9033203125,57.715182031249995,45.9033203125,57.055782031250004C45.9033203125,56.396282031249996,46.2330893125,55.95668203125,46.7270403125,55.95668203125L66.4931203125,55.95668203125C66.9871203125,55.95668203125,67.3168203125,56.396282031249996,67.3168203125,57.055782031250004C67.3168203125,57.715182031249995,66.9871203125,58.15478203125,66.4931203125,58.15478203125Z" fill="#81828D" fill-opacity="1" style="mix-blend-mode:passthrough"/></g><g transform="matrix(0.865993082523346,-0.5000559687614441,0,1,6.394642593339086,23.86204575933516)"><path d="M65.50695,70.4057546875C65.34495,70.4057546875,65.18295,70.4058546875,65.10155,70.2959546875L48.098021,57.7019546875C47.6933047,57.3722346875,47.612636,56.7105746875,47.855312,56.1599936875C48.097988,55.6094121875,48.583373,55.4983376875,48.98883,55.8302726875L65.99255,68.4231546875C66.39735,68.7528546875,66.47794999999999,69.4146546875,66.23525000000001,69.9651546875C66.07395,70.1850546875,65.74965,70.4057546875,65.50695,70.4057546875Z" fill="#81828D" fill-opacity="1" style="mix-blend-mode:passthrough"/></g><g transform="matrix(0.865993082523346,-0.5000559091567993,0,1,6.306177089223638,23.531927881296724)"><path d="M47.77965875,71.38547578125C47.55650075,71.38547578125,47.25895775,71.16567578125,47.18457175,70.83527578125C46.96077145,70.28627578125,47.03515765,69.62677578125,47.40772975,69.29637578124999L61.55089375,56.10477578125C61.92279375,55.774475781250004,62.369693749999996,55.88387578125,62.59289375,56.43397578125C62.81669375,56.98417578125,62.74229375,57.643675781249996,62.369693749999996,57.973975781250005L48.22661375,71.16457578125C48.07720375,71.38437578125,47.92843175,71.38437578125,47.77965875,71.38437578125L47.77965875,71.38547578125ZM49.09315375,57.02397578125C48.87391375,57.02397578125,48.72774375,56.91347578125,48.58224375,56.692475781249996C48.29057375,56.250675781249996,48.29057375,55.58777578125,48.58224375,55.14587578125L57.31369375,38.82423078125C57.60399375,38.38206678125,58.04439375,38.38196878125,58.33469375,38.82413278125C58.62639375,39.26606178125,58.62639375,39.92899578125,58.33469375,40.370865781250004L49.60343375,56.692475781249996C49.45725375,56.91347578125,49.31176375,57.02397578125,49.09315375,57.02397578125Z" fill="#81828D" fill-opacity="1" style="mix-blend-mode:passthrough"/></g><g transform="matrix(0.865993082523346,-0.5000559091567993,0,1,6.49946636374807,24.253199929953553)"><path d="M49.2305665625,38.12615234375C49.0113235625,38.12615234375,48.8652295625,38.01555234375,48.7197295625,37.79465234375C48.4280587625,37.35274234375,48.4280587625,36.69001234375,48.7197295625,36.24808234375L54.0929665625,28.01277534375C54.3832665625,27.57061134375,54.8234965625,27.57061134375,55.1137965625,28.01277534375C55.4054665625,28.45470434375,55.4054665625,29.11763234375,55.1137965625,29.55951234375L49.7410665625,37.79485234375C49.5948965625,38.01575234375,49.4491665625,38.12615234375,49.2305665625,38.12615234375Z" fill="#81828D" fill-opacity="1" style="mix-blend-mode:passthrough"/></g><g transform="matrix(0.865993082523346,-0.5000559687614441,0,1,6.501821954094339,24.261992867162917)"><path d="M62.146254687500004,55.83896171875C61.9070546875,55.83896171875,61.7479546875,55.72886171875,61.5880546875,55.509061718750004L48.7578516875,39.58689171875C48.4387890875,39.14728171875,48.4387890875,38.48784371875,48.7578516875,38.04818271875C49.0754156875,37.60828871875,49.5573746875,37.60828871875,49.8749346875,38.04818271875L62.7050546875,53.97036171875C63.0240546875,54.41006171875,63.0240546875,55.069561718749995,62.7050546875,55.50916171875C62.5451546875,55.72896171875,62.3860546875,55.83896171875,62.146254687500004,55.83896171875Z" fill="#81828D" fill-opacity="1" style="mix-blend-mode:passthrough"/></g><g transform="matrix(0.8659931421279907,-0.5000559687614441,0,1,6.316250971867703,23.569532551045995)"><path d="M57.0830190625,38.90442734375C56.8438890625,38.90442734375,56.6845990625,38.79412734375,56.5246990625,38.57432734375L47.3730860625,28.59665734375C47.0540234625,28.15704734375,47.0540234625,27.49760934375,47.3730860625,27.05794834375C47.6906510625,26.61805434375,48.1726090625,26.61805434375,48.4901690625,27.05794834375L57.6418890625,37.035927343750004C57.9608890625,37.47552734375,57.9608890625,38.13502734375,57.6418890625,38.57462734375C57.4819890625,38.79442734375,57.322889062499996,38.90442734375,57.0830190625,38.90442734375Z" fill="#81828D" fill-opacity="1" style="mix-blend-mode:passthrough"/></g><g transform="matrix(0.865993082523346,0.5000560283660889,0,1,4.198839792225044,-15.668259443482384)"><path d="M49.5818078125,66.94445937500001C49.170607812499995,66.94445937500001,48.8415078125,66.614659375,48.759507812500004,66.06515937500001L49.5562078125,19.390319375L44.2929078125,19.390319375L32.9902478125,65.037359375C32.9081778125,65.58695937499999,32.4970878125,66.026259375,32.0038408125,65.916359375C31.5919978125,65.806459375,31.2632876125,65.257359375,31.3453613125,64.597959375L42.8118078125,18.072691375C42.8946078125,17.523139375,43.2238078125,17.193359375,43.6349078125,17.193359375L50.2144078125,17.193359375C50.6256078125,17.193359375,50.954707812500004,17.523140375,51.037507812499996,18.072691375L50.4040078125,65.625559375C50.486107812499995,66.17505937499999,50.239807812500004,66.834559375,49.7459078125,66.94445937500001L49.5818078125,66.94445937500001Z" fill="#81828D" fill-opacity="1" style="mix-blend-mode:passthrough"/></g><g transform="matrix(0.8659930229187012,0.5000560283660889,0,1,4.249879473354667,-15.858710469910875)"><path d="M49.4514671875,30.20840390625L38.2163071875,30.26608390625C37.7237971875,30.26608390625,37.3957371875,29.82643390625,37.3957371875,29.16699390625C37.3957371875,28.50755190625,37.7237971875,28.06790360625,38.2163071875,28.06790360625L49.4514671875,28.01025390625C49.9439671875,28.01025390625,50.2722671875,28.44986390625,50.2722671875,29.10930390625C50.2722671875,29.768743906250002,49.9439671875,30.20840390625,49.4514671875,30.20840390625ZM50.693867187500004,47.74545390625L32.537620187499996,47.79345390625C32.0436361875,47.79345390625,31.7138671875,47.353853906249995,31.7138671875,46.694453906250004C31.7138671875,46.034953906249996,32.0436361875,45.59535390625,32.5375871875,45.59535390625L50.693867187500004,45.546953906249996C51.187867187500004,45.546953906249996,51.517667187499995,45.98695390625,51.517667187499995,46.64635390625C51.517667187499995,47.30585390625,51.187867187500004,47.74545390625,50.693867187500004,47.74545390625Z" fill="#81828D" fill-opacity="1" style="mix-blend-mode:passthrough"/></g><g transform="matrix(0.865993082523346,0.5000560283660889,0,1,4.638549990195315,-17.309068286558613)"><path d="M48.3340578125,63.35929296875C48.1720578125,63.35929296875,48.0100578125,63.35929296875,47.9286578125,63.24939296875L34.9936108125,50.17133296875C34.5888945125,49.84161296875,34.5081068125,49.17986296875,34.7507818125,48.62928396875C34.9934578125,48.07870206875,35.4788708125,47.96755096875,35.8843178125,48.29948596875L48.8194578125,61.37659296875C49.224157812499996,61.70629296875,49.3048578125,62.36789296875,49.062157812500004,62.91849296875C48.9008578125,63.13829296875,48.5767578125,63.35929296875,48.3341578125,63.35929296875L48.3340578125,63.35929296875Z" fill="#81828D" fill-opacity="1" style="mix-blend-mode:passthrough"/></g><g transform="matrix(0.865993082523346,0.5000560283660889,0,1,4.339913480740506,-16.19468561396934)"><path d="M33.1723591875,61.91851875C32.9282461875,61.91851875,32.6028071875,61.70041875,32.5214361875,61.37171875C32.2766181875,60.82551875,32.3580563875,60.16921875,32.7656161875,59.840618750000004L50.1727421875,46.97141875C50.579542187499996,46.64281875,51.068642187500004,46.75161875,51.312842187499996,47.29891875C51.5576421875,47.84621875,51.4760421875,48.502618749999996,51.0684421875,48.831218750000005L33.6612321875,61.69961875C33.4977821875,61.91831875,33.3351031875,61.91781875,33.1723591875,61.91781875L33.1723591875,61.91851875ZM37.4026921875,47.41361875C37.1628621875,47.41361875,37.0030221875,47.30411875,36.8438621875,47.084218750000005C36.5248021875,46.64461875,36.5248021875,45.985018749999995,36.8438621875,45.54531875L49.9513421875,29.77914075C50.2689421875,29.33924475,50.7509421875,29.33924475,51.0685421875,29.77914075C51.3876421875,30.21880175,51.3876421875,30.87806875,51.0685421875,31.31767875L37.9610121875,47.084218750000005C37.8011121875,47.30411875,37.6418121875,47.41361875,37.4026921875,47.41361875Z" fill="#81828D" fill-opacity="1" style="mix-blend-mode:passthrough"/></g><g transform="matrix(0.865993082523346,0.5000560283660889,0,1,5.221951199288014,-19.486070019425824)"><path d="M39.766065437500004,34.06900546875C39.5262354375,34.06900546875,39.3662324375,33.95900546875,39.2070694375,33.73920546875C38.8880082375,33.29960546875,38.8880082375,32.64030546875,39.2070694375,32.20060546875L48.1983134375,22.51290346875C48.5158834375,22.07300846875,48.9978734375,22.07300846875,49.3154734375,22.51290346875C49.6345734375,22.95256446875,49.6345734375,23.61221546875,49.3154734375,24.05183546875L40.3240534375,33.73960546875C40.1641534375,33.95940546875,40.0051934375,34.06900546875,39.766065437500004,34.06900546875Z" fill="#81828D" fill-opacity="1" style="mix-blend-mode:passthrough"/></g><g transform="matrix(0.8659930229187012,0.5000560283660889,0,1,5.271944405976683,-19.672614358132705)"><path d="M49.0885103125,51.99984765625C48.8756703125,51.99984765625,48.734010312500004,51.88844765625,48.5916903125,51.665447656249995L39.5538043125,35.52612765625C39.2698255125,35.08030765625,39.2698255125,34.41160865625,39.5538043125,33.96573565625C39.8364503125,33.51962465625,40.2652873125,33.52001565625,40.5479303125,33.96612565625L49.5859203125,50.10504765625C49.8699203125,50.55094765625,49.8699203125,51.219647656250004,49.5859203125,51.665447656249995C49.4436203125,51.88844765625,49.3019703125,51.99984765625,49.0885103125,51.99984765625Z" fill="#81828D" fill-opacity="1" style="mix-blend-mode:passthrough"/></g><g transform="matrix(0.865993082523346,0.5000560283660889,0,1,5.527916212042328,-20.627799506066367)"><path d="M49.0436365625,35.345880468749996C48.8308065625,35.345880468749996,48.6891465625,35.23468046875,48.5468265625,35.011780468750004L41.4639615625,25.56226046875C41.1799816625,25.11644046875,41.1799816625,24.44774146875,41.4639615625,24.00186846875C41.7466075625,23.55575746875,42.1754435625,23.55614846875,42.4580865625,24.00225846875L49.5409565625,33.450980468750004C49.8249365625,33.89688046875,49.8249365625,34.56598046875,49.5409565625,35.011780468750004C49.3986365625,35.23468046875,49.257096562499996,35.345880468749996,49.0436365625,35.345880468749996Z" fill="#81828D" fill-opacity="1" style="mix-blend-mode:passthrough"/></g><g transform="matrix(0.865993082523346,0.5000559687614441,-0.8659931421279907,0.5000560283660889,24.527655142592266,-13.668905539438128)"><rect x="48.1953125" y="20.865234375" width="6.996835708618164" height="6.867846488952637" rx="0.34717413783073425" fill-opacity="0" stroke-opacity="1" stroke="#81828D" fill="none" stroke-width="2.083045244216919"/></g><g transform="matrix(0.8660253882408142,0.5,0,1,5.313584870484192,-19.83056640625)"><path d="M49.3749228125,22.24255L39.5905730125,22.906938L39.5906761125,22.908457Q39.492917812499996,22.915095,39.3981198125,22.939874Q39.3033218125,22.964654,39.2148198125,23.006703Q39.1263178125,23.048753,39.0472268125,23.106591Q38.9681358125,23.16443,38.9012398125,23.2360233Q38.8343428125,23.3076164,38.7819958125,23.390444Q38.7296478125,23.473272,38.6936908125,23.564419Q38.6577328125,23.655566,38.6394328125,23.751825Q38.6211328125,23.848084,38.6211328125,23.946067Q38.6211328125,23.997159,38.6261428125,24.048005Q38.6311528125,24.098851,38.6411128125,24.148961Q38.6510828125,24.199071,38.6659148125,24.247963Q38.6807458125,24.29686,38.7002978125,24.34406Q38.7198498125,24.39126,38.7439348125,24.43632Q38.7680198125,24.48138,38.7964048125,24.52386Q38.8247898125,24.56634,38.8572018125,24.60584Q38.8896148125,24.64533,38.9257418125,24.68146Q38.9618688125,24.71759,39.0013638125,24.75Q39.0408588125,24.78241,39.0833398125,24.8108Q39.1258208125,24.83918,39.1708798125,24.86327Q39.2159398125,24.88735,39.2631418125,24.9069Q39.3103448125,24.92645,39.3592368125,24.94129Q39.4081288125,24.95612,39.4582388125,24.96608Q39.5083488125,24.97605,39.5591948125,24.98106Q39.6100409125,24.98607,39.6611328125,24.98607Q39.6964017125,24.98607,39.7315895125,24.98368L39.7316926125,24.9852L49.516042812500004,24.32081L49.3749228125,22.24255Z" fill-rule="evenodd" fill="#81828D" fill-opacity="1"/></g><g transform="matrix(0.8660253882408142,-0.5,0,1,6.448836536728777,24.0673828125)"><path d="M57.989575625,28.7382353125Q58.087335625,28.7315953125,58.182165624999996,28.7068253125Q58.276965625,28.6820413125,58.365465625,28.6399913125Q58.453965625,28.5979423125,58.533065625,28.5401033125Q58.612165625,28.4822653125,58.678965625000004,28.4106713125Q58.745865625,28.3390783125,58.798265625,28.2562513125Q58.850565625,28.1734233125,58.886565625,28.0822763125Q58.922565625000004,27.9911293125,58.940865625,27.8948703125Q58.959165625,27.7986108125,58.959165625,27.7006275655Q58.959165625,27.6495356125,58.954065625,27.5986893125Q58.949065625,27.5478443125,58.939165625,27.4977333125Q58.929165624999996,27.4476233125,58.914365625,27.3987313125Q58.899465625,27.3498393125,58.879965625,27.3026373125Q58.860365625,27.2554343125,58.836365625,27.2103753125Q58.812265625,27.1653163125,58.783865625000004,27.1228343125Q58.755465625,27.0803533125,58.723065625000004,27.0408583125Q58.690665625,27.0013643125,58.654465625,26.9652363125Q58.618365624999996,26.9291093125,58.578865625,26.8966963125Q58.539365625,26.8642843125,58.496865625,26.8358993125Q58.454465625,26.8075143125,58.409365625,26.7834293125Q58.364265625,26.7593453125,58.317065625,26.7397933125Q58.269865625,26.7202413125,58.220965625,26.7054093125Q58.172165625,26.690575312500002,58.122015625,26.6806153125Q58.071905625,26.6706453125,58.021055625,26.6656353125Q57.970215625,26.6606253125,57.919115625,26.6606253125Q57.883855625,26.6606253125,57.848665625,26.6630153125L57.848555625,26.6614953125L48.064205825,27.3258833125L48.064308925,27.3274023125Q47.966550624999996,27.3340403125,47.871752625,27.3588193125Q47.776954625,27.3835993125,47.688452625,27.4256483125Q47.599950625,27.4676983125,47.520859625,27.5255363125Q47.441768625,27.5833753125,47.374872625,27.6549686125Q47.307975625,27.7265617125,47.255628625,27.8093893125Q47.203280625,27.8922173125,47.167323625,27.9833643125Q47.131365625,28.0745113125,47.113065625,28.1707703125Q47.094765625,28.2670293125,47.094765625,28.3650123125Q47.094765625,28.4161043125,47.099775625,28.4669503125Q47.104785625,28.5177963125,47.114745625,28.5679063125Q47.124715625,28.6180163125,47.139547625,28.6669083125Q47.154378625,28.7158053125,47.173930625,28.7630053125Q47.193482625,28.8102053125,47.217567625,28.8552653125Q47.241652625,28.9003253125,47.270037625,28.9428053125Q47.298422625,28.9852853125,47.330834625,29.0247853125Q47.363247625,29.0642753125,47.399374625,29.1004053125Q47.435501625,29.1365353125,47.474996625,29.1689453125Q47.514491625,29.2013553125,47.556972625,29.2297453125Q47.599453625,29.2581253125,47.644512625,29.2822153125Q47.689572625,29.3062953125,47.736774625,29.3258453125Q47.783977625,29.3453953125,47.832869625,29.3602353125Q47.881761625,29.3750653125,47.931871625,29.3850253125Q47.981981625,29.3949953125,48.032827625,29.4000053125Q48.083673725,29.4050153125,48.134765625,29.4050153125Q48.170034525,29.4050153125,48.205222325,29.4026253125L48.205325425,29.4041453125L57.989675625000004,28.7397553125L57.989575625,28.7382353125Z" fill-rule="evenodd" fill="#81828D" fill-opacity="1"/></g><g transform="matrix(0.865993082523346,0.5000559687614441,-0.865993082523346,0.5000559091567993,51.948222304316005,2.2079926002770662)"><path d="M66.5949578125,69.60910390625L66.5949578125,52.54150390625L64.5119578125,52.54150390625L64.5119578125,68.91480390625L48.1142578125,68.91480390625L48.1142578125,70.99780390625L65.2062578125,70.99780390625Q66.5949578125,70.99780390625,66.5949578125,69.60910390625Z" fill-rule="evenodd" fill="#81828D" fill-opacity="1"/></g><g transform="matrix(0.865993082523346,0.5000560283660889,-0.865993082523346,0.5000559687614441,14.543603908241494,-19.44292093932745)"><path d="M50.612230625,8.62441909375Q50.550020625,8.58036309375,50.481070625,8.54782809375Q50.412130625,8.51529209375,50.338570625,8.49527309375Q50.265010625,8.47525309375,50.189090625,8.46836409375Q50.113170625,8.46147409375,50.037210625,8.46792509375Q49.961250625,8.47437609375,49.887570625,8.49397009375Q49.813900625,8.51356409375,49.744770625,8.54570109375Q49.675640625,8.57783809375,49.613170625,8.62153309375Q49.550700625,8.66522909375,49.496810625,8.71914609375L47.598859625,10.61784609375Q47.545289625,10.67143609375,47.501816625000004,10.73349609375Q47.458343625,10.79555609375,47.426283625,10.86421609375Q47.394223625,10.93287609375,47.374545625,11.00604609375Q47.354867625,11.07922609375,47.348167625,11.15470609375Q47.341467625,11.23017609375,47.347948625,11.30567609375Q47.354429625,11.38117609375,47.373894625,11.45440609375Q47.393359625,11.52763609375,47.425220625,11.59638609375Q47.457081625,11.66513609375,47.500373625,11.72732609375L58.937190625,28.15629609375Q58.995890625,28.24059609375,59.072790624999996,28.30889609375Q59.149590625,28.37729609375,59.240190625,28.42569609375Q59.330890625,28.47419609375,59.430290625,28.50019609375Q59.529790625000004,28.52609609375,59.632590625,28.52809609375L66.579690625,28.66399609375Q66.66519062500001,28.66559609375,66.749290625,28.65059609375Q66.833490625,28.63559609375,66.913090625,28.60439609375Q66.992690625,28.57319609375,67.064690625,28.52709609375Q67.136690625,28.48099609375,67.198290625,28.42179609375Q67.259890625,28.36249609375,67.308790625,28.29239609375Q67.357590625,28.22229609375,67.391890625,28.14389609375Q67.426090625,28.06559609375,67.444490625,27.98209609375Q67.462790625,27.89859609375,67.464390625,27.81319609375Q67.464890625,27.79199609375,67.464190625,27.77089609375L67.261790625,20.83819609375Q67.25889062499999,20.73739609375,67.232890625,20.63989609375Q67.206890625,20.54249609375,67.159290625,20.45359609375Q67.111690625,20.36469609375,67.044890625,20.28909609375Q66.978190625,20.213496093750003,66.89589062499999,20.15519609375L50.612230625,8.62441909375ZM50.206750625,10.46430609375L49.339890625,11.33150609375L60.108990625000004,26.80129609375L65.702490625,26.91059609375L65.539390625,21.32159609375L50.206750625,10.46430609375Z" fill-rule="evenodd" fill="#81828D" fill-opacity="1"/></g><g transform="matrix(0.8659930229187012,0.5000560283660889,-0.8659930229187012,0.5000560283660889,15.35541547765024,-18.930275098537095)"><path d="M64.77111875,28.14341484375L47.52281875,10.89569884375L48.75024475,9.66823284375L65.99851875,26.91601484375L64.77111875,28.14341484375Z" fill-rule="evenodd" fill="#81828D" fill-opacity="1"/></g></g></g></svg>