<svg xmlns="http://www.w3.org/2000/svg" xmlns:xlink="http://www.w3.org/1999/xlink" fill="none" version="1.1" width="96" height="96" viewBox="0 0 96 96"><defs><clipPath id="master_svg0_408_72570"><rect x="0" y="0" width="96" height="96" rx="0"/></clipPath><filter id="master_svg1_408_72596" filterUnits="objectBoundingBox" color-interpolation-filters="sRGB" x="-0.09661820435849103" y="-0.1291512681963621" width="1.1709741553228343" height="1.2952028987345419"><feFlood flood-opacity="0" result="BackgroundImageFix"/><feColorMatrix in="SourceAlpha" type="matrix" values="0 0 0 0 0 0 0 0 0 0 0 0 0 0 0 0 0 0 127 0"/><feOffset dy="0.9600002765655518" dx="-1"/><feGaussianBlur stdDeviation="1.9200005531311035"/><feColorMatrix type="matrix" values="0 0 0 0 0 0 0 0 0 0 0 0 0 0 0 0 0 0 0.30000001192092896 0"/><feBlend mode="normal" in2="BackgroundImageFix" result="effect1_dropShadow"/><feBlend mode="normal" in="SourceGraphic" in2="effect1_dropShadow" result="shape"/></filter><linearGradient x1="0" y1="0.5192239880561829" x2="1.0000823797301113" y2="0.5127748902744145" id="master_svg2_268_60171"><stop offset="0%" stop-color="#E4E6EE" stop-opacity="1"/><stop offset="57.25290775299072%" stop-color="#FFFFFF" stop-opacity="1"/><stop offset="100%" stop-color="#E4E6EE" stop-opacity="1"/></linearGradient><linearGradient x1="0.6949302554130554" y1="0.11147855222225189" x2="0.061971305610484584" y2="0.39077229640800215" id="master_svg3_268_60113"><stop offset="0%" stop-color="#FCFCFB" stop-opacity="1"/><stop offset="100%" stop-color="#F0F0F2" stop-opacity="1"/></linearGradient><linearGradient x1="0.0012092652032151818" y1="0.5014773011207581" x2="0.9989712238311768" y2="0.5014773011207581" id="master_svg4_268_60163"><stop offset="49.80945289134979%" stop-color="#D5D9E0" stop-opacity="1"/><stop offset="54.28423285484314%" stop-color="#FAFCFF" stop-opacity="1"/><stop offset="100%" stop-color="#E3E3E3" stop-opacity="1"/></linearGradient><linearGradient x1="1" y1="0.5" x2="0" y2="0.5" id="master_svg5_268_60130"><stop offset="0%" stop-color="#4D506C" stop-opacity="1"/><stop offset="100%" stop-color="#868793" stop-opacity="1"/></linearGradient><linearGradient x1="0.6779448390007019" y1="0.9506561756134033" x2="-0.13527870921944213" y2="0.4174969005770291" id="master_svg6_268_60166"><stop offset="0%" stop-color="#F7F9FC" stop-opacity="1"/><stop offset="100%" stop-color="#E6E8EB" stop-opacity="1"/><stop offset="100%" stop-color="#E1E3E5" stop-opacity="1"/></linearGradient><filter id="master_svg7_408_72573" filterUnits="objectBoundingBox" color-interpolation-filters="sRGB" x="0" y="0" width="1" height="1"><feFlood flood-opacity="0" result="BackgroundImageFix"/><feBlend mode="normal" in="SourceGraphic" in2="BackgroundImageFix" result="shape"/><feColorMatrix in="SourceAlpha" type="matrix" result="hardAlpha" values="0 0 0 0 0 0 0 0 0 0 0 0 0 0 0 0 0 0 127 0"/><feOffset dy="-0.9519333839416504" dx="-0.9519333839416504"/><feGaussianBlur stdDeviation="0"/><feComposite in2="hardAlpha" operator="arithmetic" k2="-1" k3="1"/><feColorMatrix type="matrix" values="0 0 0 0 1 0 0 0 0 1 0 0 0 0 1 0 0 0 0.5400000214576721 0"/><feBlend mode="normal" in2="shape" result="effect1_innerShadow"/></filter><linearGradient x1="1" y1="0.5" x2="0" y2="0.5" id="master_svg8_268_60130"><stop offset="0%" stop-color="#4D506C" stop-opacity="1"/><stop offset="100%" stop-color="#868793" stop-opacity="1"/></linearGradient><filter id="master_svg9_408_72592" filterUnits="objectBoundingBox" color-interpolation-filters="sRGB" x="0" y="0" width="1" height="1"><feFlood flood-opacity="0" result="BackgroundImageFix"/><feBlend mode="normal" in="SourceGraphic" in2="BackgroundImageFix" result="shape"/><feColorMatrix in="SourceAlpha" type="matrix" result="hardAlpha" values="0 0 0 0 0 0 0 0 0 0 0 0 0 0 0 0 0 0 127 0"/><feOffset dy="-0.9519333839416504" dx="-0.9519333839416504"/><feGaussianBlur stdDeviation="0"/><feComposite in2="hardAlpha" operator="arithmetic" k2="-1" k3="1"/><feColorMatrix type="matrix" values="0 0 0 0 1 0 0 0 0 1 0 0 0 0 1 0 0 0 0.5400000214576721 0"/><feBlend mode="normal" in2="shape" result="effect1_innerShadow"/></filter><linearGradient x1="1" y1="0.5" x2="0" y2="0.5" id="master_svga_268_60130"><stop offset="0%" stop-color="#4D506C" stop-opacity="1"/><stop offset="100%" stop-color="#868793" stop-opacity="1"/></linearGradient></defs><g clip-path="url(#master_svg0_408_72570)"><g><g filter="url(#master_svg1_408_72596)"><path d="M92.96546930999756,59.996993713378906Q92.95336930999756,64.1969937133789,92.96536930999756,66.3329937133789C92.97746930999756,68.46899371337891,91.58536930999756,70.6049937133789,88.80136930999755,72.23699371337891L58.36936930999756,89.90099371337891C52.80136930999756,93.1649937133789,43.68136930999756,93.1649937133789,38.017369309997555,89.90099371337891L7.393339309997558,72.23699371337891C4.5613393099975585,70.6049937133789,3.1453432099975585,68.46899371337891,3.1333456420975585,66.3329937133789Q3.1213480099975586,64.1969937133789,3.1332693099975586,60.4769937133789L37.72936930999756,42.76499371337891C43.297369309997556,39.50099171337891,52.41736930999756,39.50099171337891,58.081369309997555,42.76499371337891L92.96546930999756,59.996993713378906Z" fill="url(#master_svg2_268_60171)" fill-opacity="1" style="mix-blend-mode:passthrough"/></g><g><path d="M88.70957243499755,54.4289937133789C94.37357243499756,57.69299371337891,94.37357243499756,62.972993713378905,88.80557243499756,66.23699371337891L58.373572434997556,83.90099371337891C52.80557243499756,87.1649937133789,43.68557243499756,87.1649937133789,38.02157243499756,83.90099371337891L7.301552434997559,66.23699371337891C1.6375524349975585,62.972993713378905,1.6375524349975585,57.69299371337891,7.205552434997559,54.4289937133789L37.63757243499756,36.76499371337891C43.205572434997556,33.50099171337891,52.32557243499756,33.50099171337891,57.989572434997555,36.76499371337891L88.70957243499755,54.4289937133789Z" fill="url(#master_svg3_268_60113)" fill-opacity="1" style="mix-blend-mode:passthrough"/></g></g><g><g><path d="M77.7252921875,27.65283203125L18.2294921875,27.65283203125L18.2294921875,59.35223203125C18.2294921875,60.78013203125,19.1814251875,62.20803203125,21.0852921875,63.25513203125L41.361492187500005,74.96393203125001C45.0739921875,77.15333203125,51.1663921875,77.15333203125,54.8788921875,74.96393203125001L75.0598921875,63.25513203125C76.8685921875,62.20803203125,77.82049218750001,60.78013203125,77.82049218750001,59.35223203125L77.82049218750001,27.65283203125L77.7252921875,27.65283203125Z" fill="url(#master_svg4_268_60163)" fill-opacity="1" style="mix-blend-mode:passthrough"/></g><g><path d="M74.86985468750001,23.84552890625C78.58245468749999,26.034928906250002,78.58245468749999,29.46192890625,74.9650546875,31.65132890625L54.7840546875,43.36012890625C51.0715546875,45.54952890625,45.074354687500005,45.54952890625,41.2666546875,43.36012890625L20.9904546875,31.65132890625C17.2779186875,29.46192890625,17.2779186875,26.034928906250002,20.9904546875,23.84552890625L41.1714546875,12.13671890625C44.8839546875,9.94726690625,50.8811546875,9.94726690625,54.5937546875,12.13671890625L74.86985468750001,23.84552890625Z" fill="url(#master_svg5_268_60130)" fill-opacity="1"/></g><g><path d="M74.86985468750001,20.989571875C78.58245468749999,23.178971875000002,78.58245468749999,26.605971875,74.9650546875,28.795371875L54.7840546875,40.504171875C51.0715546875,42.693571875,45.074354687500005,42.693571875,41.2666546875,40.504171875L20.9904546875,28.795371875C17.2779186875,26.605971875,17.2779186875,23.178971875000002,20.9904546875,20.989571875L41.1714546875,9.280761875C44.8839546875,7.091309875,50.8811546875,7.091309875,54.5937546875,9.280761875L74.86985468750001,20.989571875Z" fill="url(#master_svg6_268_60166)" fill-opacity="1"/></g><g><g><path d="M46.311351744995115,47.905468075927736L43.36036174499512,49.61895407592773L40.02859174499512,47.715084075927734L39.36224174499512,48.09585507592774L42.694011744995116,49.99972407592774L42.694011744995116,51.522814075927734C42.694011744995116,51.61801407592773,42.694011744995116,51.80839407592774,42.694011744995116,51.903594075927735C42.694011744995116,51.99878407592773,42.59881174499512,52.09397407592773,42.59881174499512,52.189164075927735C42.59881174499512,52.28436407592773,42.503621744995115,52.28436407592773,42.503621744995115,52.379554075927736C42.40842174499512,52.474754075927734,42.313231744995115,52.56994407592774,42.21804174499512,52.66513407592773L42.88439174499511,52.28436407592773C42.97959174499512,52.189164075927735,43.074781744995114,52.09397407592773,43.16997174499512,51.99878407592773Q43.16997174499512,51.903594075927735,43.265171744995115,51.903594075927735L43.265171744995115,51.80839407592774L43.265171744995115,51.713204075927734L43.265171744995115,51.61801407592773L43.265171744995115,51.522814075927734L43.265171744995115,51.42762407592773L43.265171744995115,51.332434075927736L43.265171744995115,51.23723407592773L43.265171744995115,50.47568407592773L46.21616174499512,48.76221407592774L46.311351744995115,47.905468075927736Z" fill="#BABABA" fill-opacity="1" style="mix-blend-mode:passthrough"/></g><g><path d="M26.226864244995117,36.291780794677734L22.514324244995116,38.38603079467774L19.182554244995117,36.482170794677735L22.79990424499512,34.292720794677734L26.226864244995117,36.291780794677734Z" fill="#BDBDBD" fill-opacity="1" style="mix-blend-mode:passthrough"/></g><g><path d="M46.31182518249512,47.906038607177734L42.69447518249512,50.00028860717774L39.26751518249512,48.096428607177735L42.980055182495114,45.906978607177734L46.31182518249512,47.906038607177734Z" fill="#BDBDBD" fill-opacity="1" style="mix-blend-mode:passthrough"/></g><g><path d="M39.64873924499512,44.00274313842773L35.936199244995116,46.096993138427734L32.60442924499512,44.19312313842774L36.22177924499512,42.098873138427734L39.64873924499512,44.00274313842773Z" fill="#BDBDBD" fill-opacity="1" style="mix-blend-mode:passthrough"/></g><g><path d="M42.97979393249512,45.90655173217773L39.267253932495116,48.09599173217774L35.93548393249512,46.09693173217774L39.648023932495114,44.002681732177734L42.97979393249512,45.90655173217773Z" fill="#F7F7F7" fill-opacity="1" style="mix-blend-mode:passthrough"/></g><g><path d="M36.221507994995115,42.098909700927734L32.604167994995116,44.19315970092774L29.272397994995117,42.289299700927735L32.88974799499512,40.099849700927734L36.221507994995115,42.098909700927734Z" fill="#F7F7F7" fill-opacity="1" style="mix-blend-mode:passthrough"/></g><g><path d="M32.889476744995115,40.09991110717773L29.272136744995116,42.28935110717774L25.940366744995117,40.29029110717774L29.55771674499512,38.196041107177734L32.889476744995115,40.09991110717773Z" fill="#BDBDBD" fill-opacity="1" style="mix-blend-mode:passthrough"/></g><g><path d="M29.557918932495117,38.19610251342773L25.94056893249512,40.290352513427734L22.513608932495117,38.38648251342774L26.226148932495118,36.292232513427734L29.557918932495117,38.19610251342773Z" fill="#F7F7F7" fill-opacity="1" style="mix-blend-mode:passthrough"/></g><g><path d="M25.94056893249512,40.29034079467773L25.94056893249512,41.813430794677735C25.94056893249512,42.86056079467774,25.17901893249512,43.336530794677735,24.227088932495118,42.765370794677736C23.275154932495116,42.194200794677734,22.513608932495117,40.95669079467773,22.513608932495117,39.909570794677734L22.513608932495117,38.386470794677734L25.94056893249512,40.29034079467773Z" fill="#C2C2C9" fill-opacity="1" style="mix-blend-mode:passthrough"/></g><g><path d="M22.51381111999512,38.38653220092773L22.51381111999512,39.909622200927735C22.51381111999512,40.95675220092774,21.75226111999512,41.432722200927735,20.800331119995118,40.861562200927736C19.848397119995116,40.290392200927734,19.086851119995117,39.05288220092773,19.086851119995117,38.005762200927734L19.086851119995117,36.482662200927734L22.51381111999512,38.38653220092773Z" fill="#737586" fill-opacity="1" style="mix-blend-mode:passthrough"/></g><g><path d="M35.93568611999512,46.19219626342773L35.93568611999512,47.715286263427735C35.93568611999512,48.76241626342774,35.17413611999512,49.238386263427735,34.222206119995114,48.667226263427736C33.27027211999512,48.096056263427734,32.50872611999512,46.85854626342773,32.50872611999512,45.811426263427734L32.50872611999512,44.288326263427734L35.93568611999512,46.19219626342773Z" fill="#737586" fill-opacity="1" style="mix-blend-mode:passthrough"/></g><g><path d="M32.60365486999512,44.19366110717773L32.60365486999512,45.716751107177735C32.60365486999512,46.76388110717774,31.84210486999512,47.239851107177735,30.890174869995118,46.668691107177736C29.938240869995116,46.097521107177734,29.176694869995117,44.86001110717773,29.176694869995117,43.812891107177734L29.176694869995117,42.289791107177734L32.60365486999512,44.19366110717773Z" fill="#C2C2C9" fill-opacity="1" style="mix-blend-mode:passthrough"/></g><g><path d="M29.27260018249512,42.28936423217773L29.27260018249512,43.812454232177735C29.27260018249512,44.85958423217774,28.51105018249512,45.335554232177735,27.559120182495118,44.764394232177736C26.607186182495116,44.193224232177734,25.845640182495117,42.95571423217773,25.845640182495117,41.908594232177734L25.845640182495117,40.385494232177734L29.27260018249512,42.28936423217773Z" fill="#737586" fill-opacity="1" style="mix-blend-mode:passthrough"/></g><g><path d="M39.26771736999512,48.09600485717773L39.26771736999512,49.619094857177735C39.26771736999512,50.66622485717774,38.50616736999512,51.142194857177735,37.554237369995114,50.571034857177736C36.60230336999512,49.999864857177734,35.84075736999512,48.76235485717773,35.84075736999512,47.715234857177734L35.84075736999512,46.192134857177734L39.26771736999512,48.09600485717773Z" fill="#C2C2C9" fill-opacity="1" style="mix-blend-mode:passthrough"/></g><g><path d="M42.69447518249512,49.99981345092773L42.69447518249512,51.522903450927735C42.69447518249512,52.57003345092774,41.93292518249512,53.046003450927735,40.980995182495114,52.474843450927736C40.02906118249512,51.903673450927734,39.26751518249512,50.66616345092773,39.26751518249512,49.619043450927734L39.26751518249512,48.095943450927734L42.69447518249512,49.99981345092773Z" fill="#737586" fill-opacity="1" style="mix-blend-mode:passthrough"/></g></g><g transform="matrix(0.8660253882408142,0.5,0,1,3.120535610418301,-11.64599609375)" filter="url(#master_svg7_408_72573)"><rect x="23.2919921875" y="46.15185546875" width="22.07549476623535" height="12.023580551147461" rx="1.9038667678833008" fill="url(#master_svg8_268_60130)" fill-opacity="1"/></g><g transform="matrix(0.8660253882408142,-0.5,0,1,8.296220831689425,30.9619140625)" filter="url(#master_svg9_408_72592)"><path d="M61.923828125,68.31499765625C61.923828125,68.54139765625,62.107391125,68.72499765625,62.333828125,68.72499765625L71.099628125,68.72499765625C71.326058125,68.72499765625,71.509628125,68.54139765625,71.509628125,68.31499765625L71.509628125,57.20549765625C71.509628125,54.55844765625,69.363768125,52.41259765625,66.716728125,52.41259765625C64.069678125,52.41259765625,61.923828125,54.55844765625,61.923828125,57.20549765625L61.923828125,68.31499765625Z" fill="url(#master_svga_268_60130)" fill-opacity="1"/></g></g></g></svg>