<svg xmlns="http://www.w3.org/2000/svg" xmlns:xlink="http://www.w3.org/1999/xlink" fill="none" version="1.1" width="96" height="96" viewBox="0 0 96 96"><defs><clipPath id="master_svg0_410_73305"><rect x="0" y="0" width="96" height="96" rx="0"/></clipPath><filter id="master_svg1_410_73308" filterUnits="objectBoundingBox" color-interpolation-filters="sRGB" x="-0.09661820435849103" y="-0.1291512681963621" width="1.1709741553228343" height="1.2952028987345419"><feFlood flood-opacity="0" result="BackgroundImageFix"/><feColorMatrix in="SourceAlpha" type="matrix" values="0 0 0 0 0 0 0 0 0 0 0 0 0 0 0 0 0 0 127 0"/><feOffset dy="0.9600002765655518" dx="-1"/><feGaussianBlur stdDeviation="1.9200005531311035"/><feColorMatrix type="matrix" values="0 0 0 0 0 0 0 0 0 0 0 0 0 0 0 0 0 0 0.30000001192092896 0"/><feBlend mode="normal" in2="BackgroundImageFix" result="effect1_dropShadow"/><feBlend mode="normal" in="SourceGraphic" in2="effect1_dropShadow" result="shape"/></filter><linearGradient x1="0" y1="0.5192239880561829" x2="1.0000823797301113" y2="0.5127748902744145" id="master_svg2_268_60171"><stop offset="0%" stop-color="#E4E6EE" stop-opacity="1"/><stop offset="57.25290775299072%" stop-color="#FFFFFF" stop-opacity="1"/><stop offset="100%" stop-color="#E4E6EE" stop-opacity="1"/></linearGradient><linearGradient x1="0.8525502681732178" y1="0.2616514563560486" x2="0.16291326394165895" y2="0.4730746030894416" id="master_svg3_268_60192"><stop offset="0%" stop-color="#FCFBFB" stop-opacity="1"/><stop offset="100%" stop-color="#F0F0F2" stop-opacity="1"/></linearGradient><linearGradient x1="1" y1="1" x2="0.8014898610110324" y2="-0.12306113411605626" id="master_svg4_268_60199"><stop offset="0%" stop-color="#E1E3E5" stop-opacity="1"/><stop offset="100%" stop-color="#F7F9FC" stop-opacity="1"/></linearGradient><linearGradient x1="0.13315187394618988" y1="0.37836089730262756" x2="1.0915496621825933" y2="0.7833494443505953" id="master_svg5_268_60187"><stop offset="0%" stop-color="#4D506C" stop-opacity="1"/><stop offset="100%" stop-color="#868793" stop-opacity="1"/></linearGradient><linearGradient x1="0.6779448390007019" y1="0.9506561756134033" x2="-0.04602669318584352" y2="0.1486718468953858" id="master_svg6_268_60166"><stop offset="0%" stop-color="#F7F9FC" stop-opacity="1"/><stop offset="100%" stop-color="#E6E8EB" stop-opacity="1"/><stop offset="100%" stop-color="#E1E3E5" stop-opacity="1"/></linearGradient><filter id="master_svg7_410_73312" filterUnits="objectBoundingBox" color-interpolation-filters="sRGB" x="0" y="0" width="1" height="1"><feFlood flood-opacity="0" result="BackgroundImageFix"/><feBlend mode="normal" in="SourceGraphic" in2="BackgroundImageFix" result="shape"/><feColorMatrix in="SourceAlpha" type="matrix" result="hardAlpha" values="0 0 0 0 0 0 0 0 0 0 0 0 0 0 0 0 0 0 127 0"/><feOffset dy="-0.6666666865348816" dx="-0.6666666865348816"/><feGaussianBlur stdDeviation="0"/><feComposite in2="hardAlpha" operator="arithmetic" k2="-1" k3="1"/><feColorMatrix type="matrix" values="0 0 0 0 1 0 0 0 0 1 0 0 0 0 1 0 0 0 0.5400000214576721 0"/><feBlend mode="normal" in2="shape" result="effect1_innerShadow"/></filter><linearGradient x1="1" y1="0.5" x2="0" y2="0.5" id="master_svg8_268_60130"><stop offset="0%" stop-color="#4D506C" stop-opacity="1"/><stop offset="100%" stop-color="#868793" stop-opacity="1"/></linearGradient><filter id="master_svg9_410_73318" filterUnits="objectBoundingBox" color-interpolation-filters="sRGB" x="0" y="0" width="1" height="1"><feFlood flood-opacity="0" result="BackgroundImageFix"/><feBlend mode="normal" in="SourceGraphic" in2="BackgroundImageFix" result="shape"/><feColorMatrix in="SourceAlpha" type="matrix" result="hardAlpha" values="0 0 0 0 0 0 0 0 0 0 0 0 0 0 0 0 0 0 127 0"/><feOffset dy="-0.6666666865348816" dx="-0.6666666865348816"/><feGaussianBlur stdDeviation="0"/><feComposite in2="hardAlpha" operator="arithmetic" k2="-1" k3="1"/><feColorMatrix type="matrix" values="0 0 0 0 1 0 0 0 0 1 0 0 0 0 1 0 0 0 0.5400000214576721 0"/><feBlend mode="normal" in2="shape" result="effect1_innerShadow"/></filter><linearGradient x1="1" y1="0.5" x2="0" y2="0.5" id="master_svga_268_60130"><stop offset="0%" stop-color="#4D506C" stop-opacity="1"/><stop offset="100%" stop-color="#868793" stop-opacity="1"/></linearGradient><linearGradient x1="0.8517143130302429" y1="0.8527500033378601" x2="0.4068331406360776" y2="0.007754684662522604" id="master_svgb_268_60206"><stop offset="0%" stop-color="#AAADB5" stop-opacity="1"/><stop offset="65.95232486724854%" stop-color="#F5F9FD" stop-opacity="1"/></linearGradient><linearGradient x1="0.8517143130302429" y1="0.8527500033378601" x2="0.4218739347699948" y2="0.0019357414186519928" id="master_svgc_268_60206"><stop offset="0%" stop-color="#AAADB5" stop-opacity="1"/><stop offset="65.95232486724854%" stop-color="#F5F9FD" stop-opacity="1"/></linearGradient><linearGradient x1="0" y1="0.5" x2="1" y2="0.5" id="master_svgd_3_1469"><stop offset="0%" stop-color="#FF8C00" stop-opacity="1"/><stop offset="100%" stop-color="#FF6E00" stop-opacity="1"/></linearGradient><linearGradient x1="1" y1="0.5" x2="0" y2="0.5" id="master_svge_3_1472"><stop offset="0%" stop-color="#FFFFFF" stop-opacity="1"/><stop offset="100%" stop-color="#FFFFFF" stop-opacity="0.699999988079071"/></linearGradient><linearGradient x1="1" y1="0.5" x2="0" y2="0.5" id="master_svgf_3_1466"><stop offset="0%" stop-color="#FFFFFF" stop-opacity="0.699999988079071"/><stop offset="100%" stop-color="#FFFFFF" stop-opacity="1"/></linearGradient><linearGradient x1="1" y1="0.5" x2="0" y2="0.5" id="master_svgg_3_1472"><stop offset="0%" stop-color="#FFFFFF" stop-opacity="1"/><stop offset="100%" stop-color="#FFFFFF" stop-opacity="0.699999988079071"/></linearGradient></defs><g clip-path="url(#master_svg0_410_73305)"><g><g filter="url(#master_svg1_410_73308)"><path d="M92.96559138031006,59.997115783691406Q92.95349138031006,64.1971157836914,92.96549138031006,66.3331157836914C92.97759138031006,68.46911578369141,91.58549138031006,70.6051157836914,88.80149138031005,72.23711578369141L58.36949138031006,89.90111578369141C52.80149138031006,93.1651157836914,43.68149138031006,93.1651157836914,38.017491380310055,89.90111578369141L7.393461380310058,72.23711578369141C4.5614613803100585,70.6051157836914,3.1454652803100585,68.46911578369141,3.1334677124100585,66.3331157836914Q3.1214700803100586,64.1971157836914,3.1333913803100586,60.4771157836914L37.72949138031006,42.76511578369141C43.297491380310056,39.50111378369141,52.41749138031006,39.50111378369141,58.081491380310055,42.76511578369141L92.96559138031006,59.997115783691406Z" fill="url(#master_svg2_268_60171)" fill-opacity="1" style="mix-blend-mode:passthrough"/></g><g><path d="M88.70945036468505,54.4291157836914C94.37345036468506,57.69311578369141,94.37345036468506,62.973115783691405,88.80545036468506,66.23711578369141L58.373450364685056,83.90111578369141C52.80545036468506,87.1651157836914,43.68545036468506,87.1651157836914,38.02145036468506,83.90111578369141L7.301430364685059,66.23711578369141C1.6374303646850585,62.973115783691405,1.6374303646850585,57.69311578369141,7.205430364685059,54.4291157836914L37.63745036468506,36.76511578369141C43.205450364685056,33.50111378369141,52.32545036468506,33.50111378369141,57.989450364685055,36.76511578369141L88.70945036468505,54.4291157836914Z" fill="url(#master_svg3_268_60192)" fill-opacity="1" style="mix-blend-mode:passthrough"/></g></g><g><g transform="matrix(0.8660253882408142,0.5,0,1,3.9033352676269715,-14.56744384765625)"><rect x="29.1348876953125" y="20.53125" width="24.759843826293945" height="41.55414962768555" rx="0" fill="#D5D9E0" fill-opacity="1" style="mix-blend-mode:passthrough"/></g><g transform="matrix(0.8660253882408142,-0.5,0,1,6.761482124253234,25.23419189453125)"><path d="M50.4683837890625,74.53331079101562L68.9456837890625,74.53331079101562L68.93818378906249,32.96214796801563L50.4683837890625,33.028254091015626L50.4683837890625,74.53331079101562Z" fill="url(#master_svg4_268_60199)" fill-opacity="1"/></g><g transform="matrix(0.8660253882408142,0.5,-0.866025447845459,0.5,14.139605575997848,-17.937210083007812)"><path d="M45.207763671875,27.893143505859374L47.293533671875,29.978743505859374L72.053363671875,29.978743505859374L72.095263671875,11.671833505859375Q70.428663671875,10.004990505859375,69.762263671875,9.339152015859375Q69.710663671875,10.056650505859375,45.207763671875,27.893143505859374Z" fill="url(#master_svg5_268_60187)" fill-opacity="1"/></g><g transform="matrix(0.8660253882408142,0.5,-0.866025447845459,0.5,14.226407446265512,-17.884628295898438)"><rect x="45.2034912109375" y="9.434234619140625" width="24.556201934814453" height="18.524555206298828" rx="0" fill="url(#master_svg6_268_60166)" fill-opacity="1"/></g><g transform="matrix(0.8660253882408142,-0.5,0,1,7.1781575586283,26.78924560546875)" filter="url(#master_svg7_410_73312)"><rect x="53.5784912109375" y="34.723968505859375" width="12.573423385620117" height="7.455450057983398" rx="1.3333333730697632" fill="url(#master_svg8_268_60130)" fill-opacity="1"/></g><g transform="matrix(0.8660253882408142,-0.5,0,1,7.1781575586283,26.78924560546875)" filter="url(#master_svg9_410_73318)"><rect x="53.5784912109375" y="67.96127319335938" width="12.573423385620117" height="1.7276252508163452" rx="0.8638126254081726" fill="url(#master_svga_268_60130)" fill-opacity="1"/></g><g><g><path d="M37.79325015869141,63.42541118164063L38.807950158691405,62.84559118164063C38.95291015869141,62.700631181640624,39.097860158691404,62.41071118164062,39.097860158691404,62.12080118164062C39.097860158691404,61.39602118164063,38.7143301586914,60.71480718164062,38.13450015869141,60.279938181640624C37.8445901586914,60.134982981640626,37.42441015869141,60.091461181640625,37.13450015869141,60.091461181640625L36.119850158691406,60.67121418164062L37.79325015869141,63.42541118164063Z" fill="url(#master_svgb_268_60206)" fill-opacity="1" style="mix-blend-mode:passthrough"/></g><g><path d="M37.689104572753905,63.544919755859375C38.105714572753904,63.30602975585938,38.08846457275391,62.49296975585938,37.65025457275391,61.72918975585937C37.21219457275391,60.96526575585938,36.519154572753905,60.539817755859374,36.102547572753906,60.77870535585937C35.685941572753904,61.017741755859376,35.70333507275391,61.83065975585937,36.14139557275391,62.59457975585938C36.579600572753904,63.358359755859375,37.27249457275391,63.78395975585938,37.689104572753905,63.544919755859375Z" fill="#E9F0F8" fill-opacity="1" style="mix-blend-mode:passthrough"/></g><g><path d="M37.41326996337891,63.03586959960938C37.6910099633789,62.87655959960937,37.690279963378906,62.35340959960938,37.41138996337891,61.867369599609376C37.132631963378905,61.38118459960938,36.68137996337891,61.116351599609374,36.403643963378904,61.27565609960938C36.125905363378905,61.43496559960938,36.126773563378904,61.95811759960937,36.405526963378904,62.44429959960937C36.684279963378906,62.930339599609376,37.13553196337891,63.195179599609375,37.41326996337891,63.03586959960938Z" fill="#545771" fill-opacity="1" style="mix-blend-mode:passthrough"/></g></g><g><g><path d="M42.56147859619141,66.17950100585938L43.576178596191404,65.59967100585938C43.72113859619141,65.45471100585938,43.86609859619141,65.16479100585937,43.86609859619141,64.87489100585938C43.86609859619141,64.15010100585937,43.286268596191405,63.280356005859375,42.706438596191404,62.84548600585938C42.416528596191405,62.700531005859375,42.1266085961914,62.700531005859375,41.836698596191404,62.700531005859375L40.821998596191406,63.280356005859375L42.56147859619141,66.17950100585938Z" fill="url(#master_svgc_268_60206)" fill-opacity="1" style="mix-blend-mode:passthrough"/></g><g><path d="M42.416033283691405,66.16094655273437C42.832783283691406,65.92190655273437,42.81539328369141,65.10898655273438,42.37718328369141,64.34506655273438C41.93912328369141,63.58128755273437,41.246227283691404,63.15569055273438,40.829476283691406,63.39472745273437C40.412870283691404,63.63362055273438,40.43026378369141,64.44667655273437,40.86832428369141,65.21045655273437C41.306529283691404,65.97438655273437,41.99942328369141,66.39983655273437,42.416033283691405,66.16094655273437Z" fill="#E9F0F8" fill-opacity="1" style="mix-blend-mode:passthrough"/></g><g><path d="M42.11651703369141,65.64902619140625C42.394397033691405,65.48971619140625,42.393527033691406,64.96641619140625,42.11463703369141,64.48038119140625C41.835879033691405,63.99419119140625,41.38477403369141,63.72935319140625,41.106891033691404,63.88866269140625C40.829152433691405,64.04797219140625,40.83002333369141,64.57112319140624,41.108774033691404,65.05730619140625C41.387671033691404,65.54334619140624,41.83877903369141,65.80833619140626,42.11651703369141,65.64902619140625Z" fill="#545771" fill-opacity="1" style="mix-blend-mode:passthrough"/></g></g><g transform="matrix(0.8660253882408142,0.5,0,1,4.2605463845757185,-15.90057373046875)"><g><path d="M33.5104074609375,25.946624755859375L35.4252274609375,25.946624755859375C36.0195674609375,25.946624755859375,36.2350974609375,26.018081955859376,36.4523774609375,26.152263755859376C36.6696574609375,26.286445755859376,36.8401874609375,26.483351755859374,36.9563974609375,26.734249755859373C37.0725974609375,26.985144755859373,37.134477460937504,27.234014755859373,37.134477460937504,27.920304755859377L37.134477460937504,30.131344755859374C37.134477460937504,30.817644755859376,37.0725974609375,31.066504755859377,36.9563974609375,31.317404755859375C36.8401874609375,31.568304755859373,36.6696574609375,31.765204755859376,36.4523774609375,31.899384755859373C36.2350974609375,32.03357475585938,36.0195674609375,32.105024755859375,35.4252274609375,32.105024755859375L33.5104074609375,32.105024755859375C32.9160574609375,32.105024755859375,32.7005344609375,32.03357475585938,32.4832504609375,31.899384755859373C32.2659664609375,31.765204755859376,32.0954404609375,31.568304755859373,31.9792354609375,31.317404755859375C31.8630311609375,31.066504755859377,31.8011474609375,30.817644755859376,31.8011474609375,30.131344755859374L31.8011474609375,27.920304755859377C31.8011474609375,27.234014755859373,31.8630311609375,26.985144755859373,31.9792354609375,26.734249755859373C32.0954404609375,26.483351755859374,32.2659664609375,26.286445755859376,32.4832504609375,26.152263755859376C32.7005344609375,26.018081955859376,32.9160574609375,25.946624755859375,33.5104074609375,25.946624755859375Z" fill-rule="evenodd" fill="url(#master_svgd_3_1469)" fill-opacity="1"/></g><g><path d="M34.30207193849564,28.172321523796082L34.30207193849564,28.585605523796083Q34.30207193849564,28.61897552379608,34.31484193849563,28.649805523796083Q34.327611938495636,28.68063552379608,34.351201938495635,28.704225523796083Q34.37480193849564,28.72782552379608,34.40563193849564,28.74059552379608Q34.43646193849563,28.75336552379608,34.46983193849564,28.75336552379608Q34.503201938495636,28.75336552379608,34.53403193849564,28.74059552379608Q34.56486193849564,28.72782552379608,34.58845193849564,28.704225523796083Q34.61205193849564,28.68063552379608,34.624821938495636,28.649805523796083Q34.63759193849564,28.61897552379608,34.63759193849564,28.585605523796083L34.63759193849564,28.10399352379608Q34.63759193849564,27.99305952379608,34.547161938495634,27.93258552379608L33.716894938495635,27.37737452379608Q33.60770993849564,27.304361523796082,33.49852693849564,27.377375523796083L32.66826423849564,27.93258552379608Q32.57782993849563,27.993060523796082,32.57782993849563,28.10399352379608L32.57782993849563,29.21441552379608Q32.57782993849563,29.32534552379608,32.668264038495636,29.385825523796083L33.007901938495635,29.612945523796082Q33.03564093849564,29.631495523796083,33.068366938495636,29.63801552379608Q33.10109293849563,29.64453552379608,33.133824938495636,29.63804552379608Q33.166555938495634,29.63154552379608,33.19430893849564,29.613015523796083Q33.222061938495635,29.59448552379608,33.24061193849563,29.566745523796083Q33.27923893849564,29.50898552379608,33.26570793849564,29.440825523796082Q33.25217693849564,29.37266552379608,33.19441293849564,29.334035523796082L32.91335393849564,29.14608552379608L32.91335393849564,28.172321523796082L33.607710938495636,27.70799352379608L34.30207193849564,28.172321523796082Z" fill-rule="evenodd" fill="url(#master_svge_3_1472)" fill-opacity="1"/></g><g><path d="M33.77345689002228,29.316124744369507L34.113046890022275,29.089035744369507Q34.14078589002228,29.070485744369506,34.15931489002228,29.042733244369508Q34.17784389002228,29.014980244369507,34.184341890022274,28.982249044369507Q34.190839890022275,28.949517824369508,34.18431789002228,28.916791444369508Q34.17779489002228,28.884065144369508,34.15924589002228,28.856325944369505Q34.12061789002228,28.798561744369508,34.05245889002228,28.785030744369507Q33.98429989002228,28.771499744369507,33.92653589002228,28.810126744369505L33.52836719002228,29.076388744369506Q33.437932890022275,29.136864744369507,33.437932890022275,29.247796744369506L33.437932890022275,30.358222744369506Q33.437932890022275,30.469152744369506,33.52836699002228,30.529622744369508L34.358630890022276,31.084842744369507Q34.46781389002228,31.157852744369507,34.57699989002228,31.084832744369507L35.407264890022276,30.529622744369508Q35.49769489002228,30.469152744369506,35.49769489002228,30.358222744369506L35.49769489002228,29.247796744369506Q35.49769489002228,29.136863744369506,35.407264890022276,29.076388744369506L35.00534489002228,28.807618744369506Q34.97760489002228,28.78906874436951,34.94487489002228,28.782546744369508Q34.912144890022276,28.776023744369507,34.879414890022275,28.782521744369507Q34.846684890022274,28.789019744369508,34.81893489002228,28.807548744369505Q34.79118489002228,28.826077744369506,34.772634890022275,28.853817244369505Q34.75408489002228,28.881556444369508,34.74755489002228,28.91428274436951Q34.74103489002228,28.94700910646951,34.74753489002228,28.979740344369507Q34.754034890022275,29.012471444369506,34.77256489002228,29.040224444369507Q34.79109489002228,29.067977744369507,34.81883489002228,29.086526744369507L35.16217489002228,29.316124744369507L35.16217489002228,30.289892744369507L34.46781389002228,30.754222744369507L33.77345689002228,30.289892744369507L33.77345689002228,29.316124744369507Z" fill-rule="evenodd" fill="url(#master_svgf_3_1466)" fill-opacity="1"/></g><g><path d="M36.022278139572144,29.14608552379608L35.71914813957214,29.34879552379608Q35.661388139572146,29.387425523796082,35.64784813957214,29.45558552379608Q35.634318139572144,29.52373552379608,35.67294813957214,29.581505523796082Q35.69149813957215,29.609245523796083,35.719248139572144,29.627775523796082Q35.747008139572145,29.64630552379608,35.779738139572146,29.65279552379608Q35.81246813957215,29.659295523796082,35.845188139572144,29.65277552379608Q35.877918139572145,29.646255523796082,35.90565813957215,29.62770552379608L36.26736813957214,29.385825523796083Q36.35779813957215,29.32534552379608,36.35779813957215,29.21441552379608L36.35779813957215,28.10399352379608Q36.35779813957215,27.99305952379608,36.267358139572146,27.93258452379608L35.43710113957214,27.37737452379608Q35.327916139572146,27.304361523796082,35.218733139572144,27.377375523796083L34.388470439572146,27.93258552379608Q34.29803613957214,27.993060523796082,34.29803613957214,28.10399352379608L34.29803613957214,28.585605523796083Q34.29803613957214,28.61897552379608,34.31080613957214,28.649805523796083Q34.32357613957215,28.68063552379608,34.347172139572145,28.704225523796083Q34.37076853957215,28.72782552379608,34.401598339572146,28.74059552379608Q34.432428139572146,28.75336552379608,34.465798139572144,28.75336552379608Q34.49916813957214,28.75336552379608,34.52999793957214,28.74059552379608Q34.56082773957214,28.72782552379608,34.58442413957214,28.704225523796083Q34.60802013957214,28.68063552379608,34.620790139572144,28.649805523796083Q34.63356013957215,28.61897552379608,34.63356013957215,28.585605523796083L34.63356013957215,28.172321523796082L35.32791713957214,27.70799352379608L36.022278139572144,28.172321523796082L36.022278139572144,29.14608552379608Z" fill-rule="evenodd" fill="url(#master_svgg_3_1472)" fill-opacity="1"/></g></g></g></g></svg>