<svg xmlns="http://www.w3.org/2000/svg" xmlns:xlink="http://www.w3.org/1999/xlink" fill="none" version="1.1" width="96" height="96" viewBox="0 0 96 96"><defs><clipPath id="master_svg0_408_72762"><rect x="0" y="0" width="96" height="96" rx="0"/></clipPath><filter id="master_svg1_408_72798" filterUnits="objectBoundingBox" color-interpolation-filters="sRGB" x="-0.09661820435849103" y="-0.12915127766501205" width="1.1709741553228343" height="1.2952029203771704"><feFlood flood-opacity="0" result="BackgroundImageFix"/><feColorMatrix in="SourceAlpha" type="matrix" values="0 0 0 0 0 0 0 0 0 0 0 0 0 0 0 0 0 0 127 0"/><feOffset dy="0.9600002765655518" dx="-1"/><feGaussianBlur stdDeviation="1.9200005531311035"/><feColorMatrix type="matrix" values="0 0 0 0 0 0 0 0 0 0 0 0 0 0 0 0 0 0 0.30000001192092896 0"/><feBlend mode="normal" in2="BackgroundImageFix" result="effect1_dropShadow"/><feBlend mode="normal" in="SourceGraphic" in2="effect1_dropShadow" result="shape"/></filter><linearGradient x1="0" y1="0.5192239880561829" x2="1.00008237972413" y2="0.5127748912200616" id="master_svg2_268_60171"><stop offset="0%" stop-color="#E4E6EE" stop-opacity="1"/><stop offset="57.25290775299072%" stop-color="#FFFFFF" stop-opacity="1"/><stop offset="100%" stop-color="#E4E6EE" stop-opacity="1"/></linearGradient><linearGradient x1="0.6949302554130554" y1="0.11147855222225189" x2="0.061971305000898314" y2="0.39077230311434197" id="master_svg3_268_60113"><stop offset="0%" stop-color="#FCFCFB" stop-opacity="1"/><stop offset="100%" stop-color="#F0F0F2" stop-opacity="1"/></linearGradient><linearGradient x1="0.7044905424118042" y1="0.5736278891563416" x2="0.5305447610012016" y2="0.7387864990639829" id="master_svg4_268_60373"><stop offset="0%" stop-color="#FFFFFF" stop-opacity="1"/><stop offset="49.86792504787445%" stop-color="#F4F4F4" stop-opacity="1"/><stop offset="51.82200074195862%" stop-color="#C0C0C0" stop-opacity="1"/><stop offset="100%" stop-color="#C0C0C0" stop-opacity="1"/></linearGradient><linearGradient x1="0.5" y1="0" x2="0.5" y2="1" id="master_svg5_268_60376"><stop offset="0%" stop-color="#868793" stop-opacity="1"/><stop offset="100%" stop-color="#4D506C" stop-opacity="1"/></linearGradient><linearGradient x1="0.7044905424118042" y1="0.5736278891563416" x2="0.5305447610012016" y2="0.7387864990639829" id="master_svg6_268_60406"><stop offset="0%" stop-color="#FFFFFF" stop-opacity="1"/><stop offset="49.86792504787445%" stop-color="#F4F4F4" stop-opacity="1"/><stop offset="51.82200074195862%" stop-color="#C0C0C0" stop-opacity="1"/><stop offset="100%" stop-color="#C0C0C0" stop-opacity="1"/></linearGradient><linearGradient x1="0.5" y1="0" x2="0.5" y2="1" id="master_svg7_268_60376"><stop offset="0%" stop-color="#868793" stop-opacity="1"/><stop offset="100%" stop-color="#4D506C" stop-opacity="1"/></linearGradient></defs><g clip-path="url(#master_svg0_408_72762)"><g><g filter="url(#master_svg1_408_72798)"><path d="M92.96595759124756,59.996993713378906Q92.95385759124756,64.1969937133789,92.96585759124756,66.3329937133789C92.97795759124756,68.46899371337891,91.58585759124756,70.6049937133789,88.80185759124755,72.23699371337891L58.36985759124756,89.90099371337891C52.80185759124756,93.1649937133789,43.68185759124756,93.1649937133789,38.017857591247555,89.90099371337891L7.393827591247558,72.23699371337891C4.5618275912475585,70.6049937133789,3.1458314912475585,68.46899371337891,3.1338339233475585,66.3329937133789Q3.1218362912475586,64.1969937133789,3.1337575912475586,60.4769937133789L37.72985759124756,42.76499371337891C43.297857591247556,39.50099171337891,52.41785759124756,39.50099171337891,58.081857591247555,42.76499371337891L92.96595759124756,59.996993713378906Z" fill="url(#master_svg2_268_60171)" fill-opacity="1" style="mix-blend-mode:passthrough"/></g><g><path d="M88.70908415374755,54.4294819946289C94.37308415374756,57.69348199462891,94.37308415374756,62.973481994628905,88.80508415374756,66.23748199462891L58.373084153747556,83.90148199462891C52.80508415374756,87.1654819946289,43.68508415374756,87.1654819946289,38.02108415374756,83.90148199462891L7.301064153747559,66.23748199462891C1.6370641537475585,62.973481994628905,1.6370641537475585,57.69348199462891,7.205064153747559,54.4294819946289L37.63708415374756,36.76548199462891C43.205084153747556,33.50147999462891,52.32508415374756,33.50147999462891,57.989084153747555,36.76548199462891L88.70908415374755,54.4294819946289Z" fill="url(#master_svg3_268_60113)" fill-opacity="1" style="mix-blend-mode:passthrough"/></g></g><g transform="matrix(-0.9986295104026794,0.0523359552025795,0.0523359552025795,0.9986295104026794,118.76713230175301,-3.1100263322514365)"><g><path d="M95.34521484375,46.36548140625L104.56298484375,58.54309140625L106.59491484375,59.10429140625L107.15611484375,57.072091406249996L97.51897484375,42.84619140625L95.34521484375,46.36548140625Z" fill-rule="evenodd" fill="url(#master_svg4_268_60373)" fill-opacity="1"/></g><g><path d="M101.06134921875,41.21105078125L93.90834921875,63.95005078125L57.40380921875,47.504750781249996L56.21044921875,45.23065078125L65.96857921875,23.47705078125L101.06134921875,41.21105078125Z" fill-rule="evenodd" fill="#F5F5F5" fill-opacity="1"/></g><g><path d="M101.61573046875,40.67496359375L93.83187046875,64.11443359375L92.36083946875,61.52133359375L91.44873046875,53.78053359375L100.46556046875,39.04443359375L101.61573046875,40.67496359375Z" fill-rule="evenodd" fill="#E3E3E3" fill-opacity="1"/></g><g><path d="M100.62384921875,39.23164921875L92.82244921875,62.33834921875L56.21044921875,45.23094921875L64.37939921875,22.77294921875L100.62384921875,39.23164921875Z" fill-rule="evenodd" fill="#FFFFFF" fill-opacity="1"/></g><g><path d="M74.814165625,29.62217796875L65.797565625,25.49416726875C65.414505625,25.31879536875,65.019145625,25.42520656875,64.914495625,25.73184296875L63.209205625,30.728777968750002C63.104555625,31.03541796875,63.330255625,31.42615796875,63.713315625,31.60152796875L72.036365625,35.41196796875C72.802465625,35.76276796875,73.593165625,35.549967968749996,73.802465625,34.93664796875L75.318265625,30.494927968749998C75.422965625,30.18828796875,75.197265625,29.79754796875,74.814165625,29.62217796875ZM86.60416562500001,35.02027796875L76.89396562499999,30.57473796875C76.51086562500001,30.39935796875,76.115465625,30.50577796875,76.01086562500001,30.81240796875L74.495065625,35.25412796875C74.285765625,35.86736796875,74.737165625,36.64886796875,75.503265625,36.99966796875L83.826265625,40.81006796875C84.592365625,41.16086796875,85.383165625,40.948067968749996,85.592465625,40.33476796875L87.108265625,35.89306796875C87.212865625,35.58636796875,86.987165625,35.19564796875,86.60416562500001,35.02027796875ZM63.522155624999996,32.15773796875L71.84516562499999,35.96816796875C72.611265625,36.31896796875,73.062665625,37.100467968749996,72.853365625,37.71366796875L71.527065625,41.60026796875C71.31776562499999,42.213467968749995,70.527065625,42.42626796875,69.760965625,42.07556796875L61.437905625,38.26506796875C61.054855625,38.089767968749996,60.829155625,37.69896796875,60.933795625,37.39236796875L62.639095625,32.39541796875C62.743735625,32.08877796875,63.139095625,31.98236796875,63.522155624999996,32.15773796875ZM97.701065625,40.10166796875L88.684465625,35.97366796875C88.301365625,35.79826796875,87.906065625,35.90466796875,87.801365625,36.21136796875L86.285565625,40.65306796875C86.076265625,41.266367968750004,86.527665625,42.04786796875,87.29376562499999,42.39856796875L95.616865625,46.20906796875C95.999865625,46.38436796875,96.39526562500001,46.277967968750005,96.499865625,45.97136796875L98.205165625,40.97446796875C98.309865625,40.66776796875,98.084165625,40.27706796875,97.701065625,40.10166796875ZM83.636665625,41.36626796875L75.313565625,37.55586796875C74.547465625,37.20506796875,73.756765625,37.41796796875,73.547465625,38.03116796875L72.221065625,41.917667968749996C72.011865625,42.530967968750005,72.463265625,43.31246796875,73.229365625,43.66316796875L81.552365625,47.47366796875C82.318465625,47.824367968749996,83.109165625,47.611567968749995,83.318465625,46.99836796875L84.644865625,43.11176796875C84.85416562500001,42.498567968749995,84.402765625,41.71706796875,83.636665625,41.36626796875ZM61.248715625,38.81986796875L69.571765625,42.63036796875C70.337865625,42.98106796875,70.789265625,43.762567968750005,70.579965625,44.37586796875L69.064165625,48.81756796875C68.959465625,49.12416796875,68.564155625,49.23056796875,68.181095625,49.05526796875L59.164470625,44.92716796875C58.781413625,44.75186796875,58.555716425,44.36106796875,58.660361625,44.054467968750004L60.365655625,39.05756796875C60.470295625,38.75086796875,60.865665625,38.64446796875,61.248715625,38.81986796875ZM95.427165625,46.76416796875L87.104065625,42.95366796875C86.337965625,42.60296796875,85.547265625,42.815767968749995,85.337965625,43.429067968750005L84.011665625,47.31556796875C83.802365625,47.92876796875,84.253765625,48.71026796875,85.019865625,49.061067968749995L93.342865625,52.87146796875C93.725965625,53.04686796875,94.121265625,52.94046796875,94.225965625,52.633867968749996L95.93126562500001,47.636867968749996C96.035865625,47.33026796875,95.810165625,46.93946796875,95.427165625,46.76416796875ZM81.362965625,48.02876796875L73.03996562500001,44.21826796875C72.273865625,43.867567968749995,71.483165625,44.08036796875,71.273865625,44.69366796875L69.758065625,49.13536796875C69.65336562499999,49.442067968749996,69.879065625,49.832767968750005,70.262165625,50.00816796875L79.972365625,54.45366796875C80.355365625,54.62906796875,80.750765625,54.52266796875,80.855365625,54.21596796875L82.371265625,49.774267968749996C82.58056562499999,49.161067968750004,82.129165625,48.379567968749996,81.362965625,48.02876796875ZM93.153565625,53.42676796875L84.830465625,49.61626796875C84.064365625,49.26556796875,83.273665625,49.47836796875,83.064365625,50.09156796875L81.548565625,54.53336796875C81.443865625,54.83996796875,81.669565625,55.23076796875,82.052665625,55.40606796875L91.069265625,59.53406796875C91.452365625,59.70946796875,91.84766562499999,59.60306796875,91.952365625,59.29646796875L93.65766562499999,54.29946796875C93.762265625,53.992867968750005,93.53656562500001,53.60206796875,93.153565625,53.42676796875Z" fill-rule="evenodd" fill="url(#master_svg5_268_60376)" fill-opacity="1"/></g></g><g transform="matrix(-0.9986295104026794,0.0523359552025795,0.0523359552025795,0.9986295104026794,155.41161872915472,-4.069595663455402)"><g><path d="M114.01171875,59.03100875L123.22948875,71.20861875L125.26141875,71.76981875L125.82261875,69.73761875L116.18547875,55.51171875L114.01171875,59.03100875Z" fill-rule="evenodd" fill="url(#master_svg6_268_60406)" fill-opacity="1"/></g><g><path d="M119.727853125,53.87706640625L112.574853125,76.61606640625L76.070313125,60.170766406249996L74.876953125,57.89666640625L84.635083125,36.14306640625L119.727853125,53.87706640625Z" fill-rule="evenodd" fill="#F5F5F5" fill-opacity="1"/></g><g><path d="M120.282234375,53.34097921875L112.498374375,76.78044921875L111.027343375,74.18734921875L110.115234375,66.44654921875L119.132064375,51.71044921875L120.282234375,53.34097921875Z" fill-rule="evenodd" fill="#E3E3E3" fill-opacity="1"/></g><g><path d="M119.290353125,51.89766484375L111.488953125,75.00436484375L74.876953125,57.89696484375L83.045903125,35.43896484375L119.290353125,51.89766484375Z" fill-rule="evenodd" fill="#FFFFFF" fill-opacity="1"/></g><g><path d="M93.48066953125,42.288681875L84.46404953125,38.160671175C84.08098953125,37.985299275,83.68562953125,38.091710475,83.58098953125,38.398346875L81.87568953125,43.395281875C81.77104953125,43.701921875,81.99674953125,44.092661875,82.37979953125,44.268031875L90.70286953125,48.078471875C91.46896953125,48.429271875,92.25966953125,48.216471874999996,92.46896953125,47.603151875L93.98476953125,43.161431875C94.08946953125,42.854791875000004,93.86376953125,42.464051875,93.48066953125,42.288681875ZM105.27016953125,47.687271875L95.55996953125,43.241721874999996C95.17686953124999,43.066351875,94.78146953125,43.172761875,94.67686953124999,43.479401875L93.16106953125,47.921121875C92.95176953125,48.534371875,93.40316953125,49.315871875,94.16926953125,49.666671875L102.49226953125,53.477071875C103.25846953125,53.827871875,104.04916953125,53.614971875,104.25846953125,53.001771875L105.77426953125,48.560071875C105.87886953125,48.253371875,105.65316953125,47.862641875,105.27016953125,47.687271875ZM82.18865953125,44.823761875L90.51166953124999,48.634271874999996C91.27776953125,48.984971875,91.72916953125,49.766471875,91.51986953125,50.379771875L90.19356953125,54.266271875C89.98426953124999,54.879471875,89.19356953125,55.092371875,88.42746953125,54.741571875000005L80.10440953125,50.931071875C79.72135953125,50.755771875,79.49565953125,50.364971875,79.60029953125,50.058371875L81.30559953125,45.061431875C81.41023953125,44.754791875,81.80559953125,44.648381875,82.18865953125,44.823761875ZM116.36756953125,52.767671875L107.35096953125,48.639671875C106.96786953125,48.464271875,106.57256953125,48.570671875,106.46786953125,48.877371875L104.95206953125,53.319071875C104.74276953125,53.932371875,105.19416953125,54.713871874999995,105.96026953124999,55.064571875L114.28336953125,58.875071875C114.66636953125,59.050371874999996,115.06176953125001,58.943971875,115.16636953125,58.637371875L116.87166953125,53.640471875C116.97636953125,53.333771875,116.75066953125,52.943071875,116.36756953125,52.767671875ZM102.30266953125,54.031671875L93.97956953125001,50.221271875C93.21346953125,49.870471875,92.42276953125,50.083371875,92.21346953125,50.696571875000004L90.88716953125,54.583071875C90.67786953125,55.196371875,91.12926953125,55.977871875000005,91.89536953125,56.328571875L100.21836953125,60.139071875C100.98446953125,60.489871875,101.77526953125,60.276971875,101.98456953125,59.663771874999995L103.31086953125,55.777171875C103.52016953125,55.163971875,103.06876953125,54.382471875,102.30266953125,54.031671875ZM79.91521953125,51.485771875L88.23826953125,55.296171875C89.00436953125,55.646971875,89.45576953125,56.428471875,89.24646953125,57.041671875L87.73066953125,61.483471875C87.62596953125,61.790071874999995,87.23065953125,61.896471875,86.84759953125,61.721071875L77.83097453125,57.593071875C77.44791753125,57.417771875,77.22222033125,57.026971875,77.32686553125,56.720371875L79.03215953125,51.723371875C79.13679953125,51.416771875,79.53216953125,51.310371875,79.91521953125,51.485771875ZM114.09416953125,59.430171875L105.77106953124999,55.619671875C105.00496953125,55.268971875,104.21426953125,55.481771875,104.00496953125,56.095071875L102.67866953125,59.981571875C102.46936953125,60.594771875,102.92076953125,61.376271875,103.68686953125,61.727071875L112.00986953124999,65.537471875C112.39296953125,65.712871875,112.78826953125,65.606471875,112.89296953125,65.29987187500001L114.59826953125,60.302871875C114.70286953125,59.996271875000005,114.47716953125,59.605571874999995,114.09416953125,59.430171875ZM100.02946953125,60.694271875L91.70646953125001,56.883871875C90.94036953125,56.533071875000005,90.14966953125,56.745871875,89.94036953125,57.359171875L88.42456953125,61.800871875C88.31986953124999,62.107571875000005,88.54556953125,62.498271875,88.92866953125,62.673671875L98.63886953125,67.119171875C99.02186953125,67.294571875,99.41726953125,67.188171875,99.52186953125,66.88157187499999L101.03776953125,62.439771875000005C101.24706953124999,61.826571875,100.79566953125,61.045071875000005,100.02946953125,60.694271875ZM111.82056953125,66.092771875L103.49746953125,62.282271875C102.73136953125,61.931571875,101.94066953125,62.144371875000004,101.73136953125,62.757671875L100.21556953125,67.199371875C100.11086953125,67.505971875,100.33656953125,67.896771875,100.71966953124999,68.072071875L109.73626953125,72.20007187499999C110.11936953125,72.375471875,110.51466953125001,72.26907187500001,110.61936953125,71.962471875L112.32466953125001,66.96547187499999C112.42926953125,66.658871875,112.20356953125,66.268071875,111.82056953125,66.092771875Z" fill-rule="evenodd" fill="url(#master_svg7_268_60376)" fill-opacity="1"/></g></g></g></svg>