<svg xmlns="http://www.w3.org/2000/svg" xmlns:xlink="http://www.w3.org/1999/xlink" fill="none" version="1.1" width="96" height="96" viewBox="0 0 96 96"><defs><clipPath id="master_svg0_408_72811"><rect x="0" y="0" width="96" height="96" rx="0"/></clipPath><filter id="master_svg1_408_72830" filterUnits="objectBoundingBox" color-interpolation-filters="sRGB" x="-0.09661820435849103" y="-0.1291512681963621" width="1.1709741553228343" height="1.2952028987345419"><feFlood flood-opacity="0" result="BackgroundImageFix"/><feColorMatrix in="SourceAlpha" type="matrix" values="0 0 0 0 0 0 0 0 0 0 0 0 0 0 0 0 0 0 127 0"/><feOffset dy="0.9600002765655518" dx="-1"/><feGaussianBlur stdDeviation="1.9200005531311035"/><feColorMatrix type="matrix" values="0 0 0 0 0 0 0 0 0 0 0 0 0 0 0 0 0 0 0.30000001192092896 0"/><feBlend mode="normal" in2="BackgroundImageFix" result="effect1_dropShadow"/><feBlend mode="normal" in="SourceGraphic" in2="effect1_dropShadow" result="shape"/></filter><linearGradient x1="0" y1="0.5192239880561829" x2="1.0000823797301113" y2="0.5127748902744145" id="master_svg2_268_60171"><stop offset="0%" stop-color="#E4E6EE" stop-opacity="1"/><stop offset="57.25290775299072%" stop-color="#FFFFFF" stop-opacity="1"/><stop offset="100%" stop-color="#E4E6EE" stop-opacity="1"/></linearGradient><linearGradient x1="0.8525502681732178" y1="0.2616514563560486" x2="0.16291326394165895" y2="0.4730746030894416" id="master_svg3_268_60192"><stop offset="0%" stop-color="#FCFBFB" stop-opacity="1"/><stop offset="100%" stop-color="#F0F0F2" stop-opacity="1"/></linearGradient><linearGradient x1="1" y1="1" x2="0.3057722450109888" y2="-0.12385005558375813" id="master_svg4_268_60199"><stop offset="0%" stop-color="#E1E3E5" stop-opacity="1"/><stop offset="100%" stop-color="#F7F9FC" stop-opacity="1"/></linearGradient><linearGradient x1="0.13315187394618988" y1="0.37836089730262756" x2="0.7405059907820181" y2="1.1933763910123907" id="master_svg5_268_60187"><stop offset="0%" stop-color="#4D506C" stop-opacity="1"/><stop offset="100%" stop-color="#868793" stop-opacity="1"/></linearGradient><linearGradient x1="0.6779448390007019" y1="0.9506561756134033" x2="0.4067855370822144" y2="-0.10527749328012864" id="master_svg6_268_60166"><stop offset="0%" stop-color="#F7F9FC" stop-opacity="1"/><stop offset="100%" stop-color="#E6E8EB" stop-opacity="1"/><stop offset="100%" stop-color="#E1E3E5" stop-opacity="1"/></linearGradient><linearGradient x1="1" y1="0.5" x2="0" y2="0.5" id="master_svg7_268_60130"><stop offset="0%" stop-color="#4D506C" stop-opacity="1"/><stop offset="100%" stop-color="#868793" stop-opacity="1"/></linearGradient><filter id="master_svg8_408_72813" filterUnits="objectBoundingBox" color-interpolation-filters="sRGB" x="0" y="0" width="1" height="1"><feFlood flood-opacity="0" result="BackgroundImageFix"/><feBlend mode="normal" in="SourceGraphic" in2="BackgroundImageFix" result="shape"/><feColorMatrix in="SourceAlpha" type="matrix" result="hardAlpha" values="0 0 0 0 0 0 0 0 0 0 0 0 0 0 0 0 0 0 127 0"/><feOffset dy="-0.6666666865348816" dx="-0.6666666865348816"/><feGaussianBlur stdDeviation="0"/><feComposite in2="hardAlpha" operator="arithmetic" k2="-1" k3="1"/><feColorMatrix type="matrix" values="0 0 0 0 1 0 0 0 0 1 0 0 0 0 1 0 0 0 0.5400000214576721 0"/><feBlend mode="normal" in2="shape" result="effect1_innerShadow"/></filter><linearGradient x1="1" y1="0.5" x2="0" y2="0.5" id="master_svg9_268_60130"><stop offset="0%" stop-color="#4D506C" stop-opacity="1"/><stop offset="100%" stop-color="#868793" stop-opacity="1"/></linearGradient><filter id="master_svga_408_72816" filterUnits="objectBoundingBox" color-interpolation-filters="sRGB" x="0" y="0" width="1" height="1"><feFlood flood-opacity="0" result="BackgroundImageFix"/><feBlend mode="normal" in="SourceGraphic" in2="BackgroundImageFix" result="shape"/><feColorMatrix in="SourceAlpha" type="matrix" result="hardAlpha" values="0 0 0 0 0 0 0 0 0 0 0 0 0 0 0 0 0 0 127 0"/><feOffset dy="-0.6666666865348816" dx="-0.6666666865348816"/><feGaussianBlur stdDeviation="0"/><feComposite in2="hardAlpha" operator="arithmetic" k2="-1" k3="1"/><feColorMatrix type="matrix" values="0 0 0 0 1 0 0 0 0 1 0 0 0 0 1 0 0 0 0.5400000214576721 0"/><feBlend mode="normal" in2="shape" result="effect1_innerShadow"/></filter><linearGradient x1="1" y1="0.5" x2="0" y2="0.5" id="master_svgb_268_60130"><stop offset="0%" stop-color="#4D506C" stop-opacity="1"/><stop offset="100%" stop-color="#868793" stop-opacity="1"/></linearGradient><linearGradient x1="0.8517143130302429" y1="0.8527500033378601" x2="0.421875574400858" y2="0.0019351385652787711" id="master_svgc_268_60206"><stop offset="0%" stop-color="#AAADB5" stop-opacity="1"/><stop offset="65.95232486724854%" stop-color="#F5F9FD" stop-opacity="1"/></linearGradient><linearGradient x1="0.8517143130302429" y1="0.8527500033378601" x2="0.4218739347699948" y2="0.0019357414186519928" id="master_svgd_268_60206"><stop offset="0%" stop-color="#AAADB5" stop-opacity="1"/><stop offset="65.95232486724854%" stop-color="#F5F9FD" stop-opacity="1"/></linearGradient><linearGradient x1="0" y1="0.5" x2="1" y2="0.5" id="master_svge_3_1469"><stop offset="0%" stop-color="#FF8C00" stop-opacity="1"/><stop offset="100%" stop-color="#FF6E00" stop-opacity="1"/></linearGradient><linearGradient x1="1" y1="0.5" x2="0" y2="0.5" id="master_svgf_3_1472"><stop offset="0%" stop-color="#FFFFFF" stop-opacity="1"/><stop offset="100%" stop-color="#FFFFFF" stop-opacity="0.699999988079071"/></linearGradient><linearGradient x1="1" y1="0.5" x2="0" y2="0.5" id="master_svgg_3_1466"><stop offset="0%" stop-color="#FFFFFF" stop-opacity="0.699999988079071"/><stop offset="100%" stop-color="#FFFFFF" stop-opacity="1"/></linearGradient><linearGradient x1="1" y1="0.5" x2="0" y2="0.5" id="master_svgh_3_1472"><stop offset="0%" stop-color="#FFFFFF" stop-opacity="1"/><stop offset="100%" stop-color="#FFFFFF" stop-opacity="0.699999988079071"/></linearGradient></defs><g clip-path="url(#master_svg0_408_72811)"><g><g filter="url(#master_svg1_408_72830)"><path d="M92.96546930999756,59.996993713378906Q92.95336930999756,64.1969937133789,92.96536930999756,66.3329937133789C92.97746930999756,68.46899371337891,91.58536930999756,70.6049937133789,88.80136930999755,72.23699371337891L58.36936930999756,89.90099371337891C52.80136930999756,93.1649937133789,43.68136930999756,93.1649937133789,38.017369309997555,89.90099371337891L7.393339309997558,72.23699371337891C4.5613393099975585,70.6049937133789,3.1453432099975585,68.46899371337891,3.1333456420975585,66.3329937133789Q3.1213480099975586,64.1969937133789,3.1332693099975586,60.4769937133789L37.72936930999756,42.76499371337891C43.297369309997556,39.50099171337891,52.41736930999756,39.50099171337891,58.081369309997555,42.76499371337891L92.96546930999756,59.996993713378906Z" fill="url(#master_svg2_268_60171)" fill-opacity="1" style="mix-blend-mode:passthrough"/></g><g><path d="M88.70957243499755,54.4289937133789C94.37357243499756,57.69299371337891,94.37357243499756,62.972993713378905,88.80557243499756,66.23699371337891L58.373572434997556,83.90099371337891C52.80557243499756,87.1649937133789,43.68557243499756,87.1649937133789,38.02157243499756,83.90099371337891L7.301552434997559,66.23699371337891C1.6375524349975585,62.972993713378905,1.6375524349975585,57.69299371337891,7.205552434997559,54.4289937133789L37.63757243499756,36.76499371337891C43.205572434997556,33.50099171337891,52.32557243499756,33.50099171337891,57.989572434997555,36.76499371337891L88.70957243499755,54.4289937133789Z" fill="url(#master_svg3_268_60192)" fill-opacity="1" style="mix-blend-mode:passthrough"/></g></g><g transform="matrix(0.8660253882408142,0.5,0,1,3.3047507015871815,-12.33349609375)"><rect x="24.6669921875" y="22.58447265625" width="24.759843826293945" height="41.55414962768555" rx="0" fill="#D5D9E0" fill-opacity="1" style="mix-blend-mode:passthrough"/></g><g transform="matrix(0.8660253882408142,-0.5,0,1,6.162832140922546,23)"><rect x="46" y="34.92333984375" width="34.61827087402344" height="41.6632080078125" rx="0" fill="url(#master_svg4_268_60199)" fill-opacity="1"/></g><g transform="matrix(0.8660253882408142,0.5,-0.866025447845459,0.5,10.223044083162677,-25.657470703125)"><path d="M54.6632486975,37.98554453125L56.7490259375,40.07114453125L81.5088859375,40.07114453125L81.34778593749999,5.39502453125L79.3004859375,3.34814453125L54.6632486975,37.98554453125Z" fill="url(#master_svg5_268_60187)" fill-opacity="1"/></g><g transform="matrix(0.8660253882408142,0.5,-0.866025447845459,0.5,10.268012928892858,-25.694091796875)"><rect x="54.771484375" y="3.38330078125" width="24.557071685791016" height="34.73337936401367" rx="0" fill="url(#master_svg6_268_60166)" fill-opacity="1"/></g><g transform="matrix(0.8660253882408142,-0.5,0,1,7.523773460765369,28.0791015625)"><rect x="56.158203125" y="29.0693359375" width="2.515608310699463" height="41.90352249145508" rx="0" fill="url(#master_svg7_268_60130)" fill-opacity="1"/></g><g transform="matrix(0.8660253882408142,-0.5,0,1,6.579540283943061,24.55517578125)" filter="url(#master_svg8_408_72813)"><rect x="49.1103515625" y="36.74951171875" width="5.528621673583984" height="13.186208724975586" rx="1.3333333730697632" fill="url(#master_svg9_268_60130)" fill-opacity="1"/></g><g filter="url(#master_svga_408_72816)"><path d="M60.760326,48.52737C60.284875,48.81686,60,49.38993,60,49.96289L60,50.36106C60,50.83852,60.379962,51.12601,60.856416,50.84556C60.861726,50.84243,60.866665,50.8395,60.871992,50.8364L73.22409999999999,43.65616C73.2294,43.653059999999996,73.2344,43.65014,73.2397,43.64693C73.7151,43.35744,74,42.78437,74,42.211411L74,41.813477C74,41.336008,73.62010000000001,41.048375,73.1437,41.328825C73.1383,41.331952,73.1334,41.334882,73.1281,41.337981L60.775896,48.51814C60.770568,48.52124,60.76559,48.52416,60.760326,48.52737" fill="url(#master_svgb_268_60130)" fill-opacity="1"/></g><g><g><path d="M29.3254175,30.81246609375L30.340117499999998,30.23263609375C30.4850775,30.087676093749998,30.6300375,29.79775609375,30.6300375,29.50785609375C30.6300375,28.78306609375,30.0502075,27.91332109375,29.4703775,27.47845109375C29.1804675,27.33349609375,28.8905475,27.33349609375,28.6006375,27.33349609375L27.5859375,27.91332109375L29.3254175,30.81246609375Z" fill="url(#master_svgc_268_60206)" fill-opacity="1" style="mix-blend-mode:passthrough"/></g><g><path d="M29.2209878125,30.93179109375C29.6375978125,30.69290109375,29.6203478125,29.87984109375,29.1821378125,29.116061093749998C28.7440778125,28.35213709375,28.0510378125,27.92668909375,27.6344308125,28.16557669375C27.2178248125,28.40461309375,27.2352183125,29.21753109375,27.6732788125,29.98145109375C28.1114838125,30.74523109375,28.8043778125,31.17083109375,29.2209878125,30.93179109375Z" fill="#E9F0F8" fill-opacity="1" style="mix-blend-mode:passthrough"/></g><g><path d="M28.9449090625,30.4227409375C29.2226490625,30.2634309375,29.2219190625,29.7402809375,28.9430290625,29.2542409375C28.6642710625,28.7680559375,28.2130190625,28.5032229375,27.9352830625,28.6625274375C27.6575444625,28.8218369375,27.6584126625,29.3449889375,27.9371660625,29.8311709375C28.2159190625,30.3172109375,28.6671710625,30.5820509375,28.9449090625,30.4227409375Z" fill="#545771" fill-opacity="1" style="mix-blend-mode:passthrough"/></g></g><g><g><path d="M34.09348390625,33.56637234375L35.10818390625,32.98654234375C35.25314390625,32.84158234375,35.39810390625,32.55166234375,35.39810390625,32.26176234375C35.39810390625,31.53697234375,34.81827390625,30.66722734375,34.23844390625,30.23235734375C33.94853390625,30.08740234375,33.65861390625,30.08740234375,33.36870390625,30.08740234375L32.35400390625,30.66722734375L34.09348390625,33.56637234375Z" fill="url(#master_svgd_268_60206)" fill-opacity="1" style="mix-blend-mode:passthrough"/></g><g><path d="M33.94803859375,33.54757375C34.36478859375,33.30853375,34.34739859375,32.49561375,33.90918859375,31.73169375C33.47112859375,30.96791475,32.77823259375,30.54231775,32.36148159375,30.78135465C31.94487559375,31.02024775,31.96226909375,31.83330375,32.40032959375,32.59708375C32.83853459375,33.36101375,33.53142859375,33.78646375,33.94803859375,33.54757375Z" fill="#E9F0F8" fill-opacity="1" style="mix-blend-mode:passthrough"/></g><g><path d="M33.64852234375,33.03568390625C33.92640234375,32.87637390625,33.92553234375,32.35307390625,33.64664234375,31.86703890625C33.36788434375,31.38084890625,32.91677934375,31.11601090625,32.63889634375,31.27532040625C32.36115774375,31.43462990625,32.36202864375,31.95778090625,32.64077934375,32.44396390625C32.91967634375,32.93000390625,33.37078434375,33.19499390625,33.64852234375,33.03568390625Z" fill="#545771" fill-opacity="1" style="mix-blend-mode:passthrough"/></g></g><g transform="matrix(0.8660253882408142,-0.5,0,1,9.199633618991356,34.33349609375)"><g><path d="M70.3762521875,26L72.2910721875,26C72.8854121875,26,73.1009421875,26.0714572,73.3182221875,26.205639C73.5355021875,26.339821,73.7060321875,26.536727,73.8222421875,26.787625C73.9384421875,27.03852,74.0003221875,27.28739,74.0003221875,27.97368L74.0003221875,30.18472C74.0003221875,30.87102,73.9384421875,31.119880000000002,73.8222421875,31.37078C73.7060321875,31.621679999999998,73.5355021875,31.81858,73.3182221875,31.952759999999998C73.1009421875,32.08695,72.8854121875,32.1584,72.2910721875,32.1584L70.3762521875,32.1584C69.7819021875,32.1584,69.5663791875,32.08695,69.3490951875,31.952759999999998C69.1318111875,31.81858,68.9612851875,31.621679999999998,68.8450801875,31.37078C68.7288758875,31.119880000000002,68.6669921875,30.87102,68.6669921875,30.18472L68.6669921875,27.97368C68.6669921875,27.28739,68.7288758875,27.03852,68.8450801875,26.787625C68.9612851875,26.536727,69.1318111875,26.339821,69.3490951875,26.205639C69.5663791875,26.0714572,69.7819021875,26,70.3762521875,26Z" fill-rule="evenodd" fill="url(#master_svge_3_1469)" fill-opacity="1"/></g><g><path d="M71.16791666505813,28.225696767936707L71.16791666505813,28.638980767936708Q71.16791666505813,28.672350767936706,71.18068666505813,28.703180767936708Q71.19345666505814,28.734010767936706,71.21704666505813,28.757600767936708Q71.24064666505814,28.781200767936706,71.27147666505813,28.793970767936706Q71.30230666505814,28.806740767936706,71.33567666505813,28.806740767936706Q71.36904666505814,28.806740767936706,71.39987666505813,28.793970767936706Q71.43070666505814,28.781200767936706,71.45429666505814,28.757600767936708Q71.47789666505814,28.734010767936706,71.49066666505814,28.703180767936708Q71.50343666505813,28.672350767936706,71.50343666505813,28.638980767936708L71.50343666505813,28.157368767936706Q71.50343666505813,28.046434767936706,71.41300666505813,27.985960767936707L70.58273966505814,27.430749767936707Q70.47355466505813,27.357736767936707,70.36437166505813,27.430750767936708L69.53410896505814,27.985960767936707Q69.44367466505814,28.046435767936707,69.44367466505814,28.157368767936706L69.44367466505814,29.267790767936706Q69.44367466505814,29.378720767936706,69.53410876505814,29.439200767936708L69.87374666505814,29.666320767936707Q69.90148566505813,29.684870767936708,69.93421166505813,29.691390767936706Q69.96693766505814,29.697910767936705,69.99966966505814,29.691420767936705Q70.03240066505813,29.684920767936706,70.06015366505814,29.666390767936708Q70.08790666505814,29.647860767936706,70.10645666505813,29.620120767936708Q70.14508366505814,29.562360767936706,70.13155266505814,29.494200767936707Q70.11802166505814,29.426040767936705,70.06025766505813,29.387410767936707L69.77919866505813,29.199460767936706L69.77919866505813,28.225696767936707L70.47355566505814,27.761368767936705L71.16791666505813,28.225696767936707Z" fill-rule="evenodd" fill="url(#master_svgf_3_1472)" fill-opacity="1"/></g><g><path d="M70.63930161658477,29.36949998851013L70.97889161658478,29.142410988510132Q71.00663061658477,29.12386098851013,71.02515961658477,29.096108488510133Q71.04368861658477,29.068355488510132,71.05018661658478,29.03562428851013Q71.05668461658477,29.002893068510133,71.05016261658477,28.970166688510133Q71.04363961658478,28.937440388510133,71.02509061658478,28.90970118851013Q70.98646261658477,28.851936988510133,70.91830361658478,28.838405988510132Q70.85014461658477,28.824874988510132,70.79238061658478,28.86350198851013L70.39421191658478,29.12976398851013Q70.30377761658478,29.190239988510132,70.30377761658478,29.30117198851013L70.30377761658478,30.41159798851013Q70.30377761658478,30.52252798851013,70.39421171658478,30.582997988510133L71.22447561658478,31.13821798851013Q71.33365861658478,31.21122798851013,71.44284461658478,31.138207988510132L72.27310961658478,30.582997988510133Q72.36353961658477,30.52252798851013,72.36353961658477,30.41159798851013L72.36353961658477,29.30117198851013Q72.36353961658477,29.19023898851013,72.27310961658478,29.12976398851013L71.87118961658477,28.86099398851013Q71.84344961658478,28.842443988510134,71.81071961658478,28.835921988510133Q71.77798961658478,28.829398988510132,71.74525961658478,28.835896988510132Q71.71252961658477,28.842394988510133,71.68477961658478,28.86092398851013Q71.65702961658478,28.87945298851013,71.63847961658477,28.90719248851013Q71.61992961658478,28.934931688510133,71.61339961658477,28.967657988510133Q71.60687961658478,29.000384350610133,71.61337961658478,29.03311558851013Q71.61987961658478,29.06584668851013,71.63840961658478,29.093599688510132Q71.65693961658478,29.121352988510132,71.68467961658477,29.139901988510132L72.02801961658477,29.36949998851013L72.02801961658477,30.34326798851013L71.33365861658478,30.807597988510132L70.63930161658477,30.34326798851013L70.63930161658477,29.36949998851013Z" fill-rule="evenodd" fill="url(#master_svgg_3_1466)" fill-opacity="1"/></g><g><path d="M72.88812286613464,29.199460767936706L72.58499286613464,29.402170767936706Q72.52723286613464,29.440800767936707,72.51369286613465,29.508960767936706Q72.50016286613464,29.577110767936706,72.53879286613464,29.634880767936707Q72.55734286613465,29.66262076793671,72.58509286613464,29.681150767936707Q72.61285286613465,29.699680767936705,72.64558286613465,29.706170767936705Q72.67831286613465,29.712670767936707,72.71103286613464,29.706150767936705Q72.74376286613465,29.699630767936707,72.77150286613464,29.681080767936706L73.13321286613464,29.439200767936708Q73.22364286613464,29.378720767936706,73.22364286613464,29.267790767936706L73.22364286613464,28.157368767936706Q73.22364286613464,28.046434767936706,73.13320286613464,27.985959767936706L72.30294586613465,27.430749767936707Q72.19376086613464,27.357736767936707,72.08457786613464,27.430750767936708L71.25431516613465,27.985960767936707Q71.16388086613465,28.046435767936707,71.16388086613465,28.157368767936706L71.16388086613465,28.638980767936708Q71.16388086613465,28.672350767936706,71.17665086613465,28.703180767936708Q71.18942086613464,28.734010767936706,71.21301686613464,28.757600767936708Q71.23661326613464,28.781200767936706,71.26744306613465,28.793970767936706Q71.29827286613464,28.806740767936706,71.33164286613464,28.806740767936706Q71.36501286613465,28.806740767936706,71.39584266613464,28.793970767936706Q71.42667246613465,28.781200767936706,71.45026886613465,28.757600767936708Q71.47386486613465,28.734010767936706,71.48663486613464,28.703180767936708Q71.49940486613464,28.672350767936706,71.49940486613464,28.638980767936708L71.49940486613464,28.225696767936707L72.19376186613465,27.761368767936705L72.88812286613464,28.225696767936707L72.88812286613464,29.199460767936706Z" fill-rule="evenodd" fill="url(#master_svgh_3_1472)" fill-opacity="1"/></g></g></g></svg>