<svg xmlns="http://www.w3.org/2000/svg" xmlns:xlink="http://www.w3.org/1999/xlink" fill="none" version="1.1" width="64" height="64" viewBox="0 0 64 64"><defs><linearGradient x1="0" y1="0.5" x2="1" y2="0.5" id="master_svg0_3_1469"><stop offset="0%" stop-color="#FF8C00" stop-opacity="1"/><stop offset="100%" stop-color="#FF6E00" stop-opacity="1"/></linearGradient><linearGradient x1="1" y1="0.5" x2="0" y2="0.5" id="master_svg1_3_1472"><stop offset="0%" stop-color="#FFFFFF" stop-opacity="1"/><stop offset="100%" stop-color="#FFFFFF" stop-opacity="0.699999988079071"/></linearGradient><linearGradient x1="1" y1="0.5" x2="0" y2="0.5" id="master_svg2_3_1466"><stop offset="0%" stop-color="#FFFFFF" stop-opacity="0.699999988079071"/><stop offset="100%" stop-color="#FFFFFF" stop-opacity="1"/></linearGradient><linearGradient x1="1" y1="0.5" x2="0" y2="0.5" id="master_svg3_3_1472"><stop offset="0%" stop-color="#FFFFFF" stop-opacity="1"/><stop offset="100%" stop-color="#FFFFFF" stop-opacity="0.699999988079071"/></linearGradient></defs><g><g><path d="M20.5111,-5.52448e-16L43.4889,8.28672e-16C50.6211,-4.81482e-16,53.2074,0.742605,55.8148,2.13706C58.4222,3.53152,60.4685,5.57783,61.8629,8.18524C63.2574,10.7926,64,13.3789,64,20.5111L64,43.4889C64,50.6211,63.2574,53.2074,61.8629,55.8148C60.4685,58.4222,58.4222,60.4685,55.8148,61.8629C53.2074,63.2574,50.6211,64,43.4889,64L20.5111,64C13.3789,64,10.7926,63.2574,8.18524,61.8629C5.57783,60.4685,3.53152,58.4222,2.13706,55.8148C0.742605,53.2074,1.60494e-16,50.6211,-2.76224e-16,43.4889L5.52448e-16,20.5111C-3.20988e-16,13.3789,0.742605,10.7926,2.13706,8.18524C3.53152,5.57783,5.57783,3.53152,8.18524,2.13706C10.7926,0.742605,13.3789,3.20988e-16,20.5111,-5.52448e-16Z" fill-rule="evenodd" fill="url(#master_svg0_3_1469)" fill-opacity="1"/></g><g><path d="M30.011028247070314,23.359152597656248L30.011028247070314,27.42506259765625Q30.011028247070314,27.52396259765625,30.020728247070313,27.62236259765625Q30.03042824707031,27.72086259765625,30.049728247070313,27.81786259765625Q30.069028247070314,27.91486259765625,30.09772824707031,28.009462597656253Q30.12642824707031,28.104062597656252,30.164328247070312,28.195462597656253Q30.202128247070313,28.286862597656253,30.248728247070314,28.37406259765625Q30.295328247070312,28.46126259765625,30.350328247070312,28.543562597656248Q30.405228247070312,28.625762597656248,30.46802824707031,28.702162597656248Q30.53072824707031,28.77866259765625,30.60072824707031,28.848562597656247Q30.67062824707031,28.91846259765625,30.74702824707031,28.98126259765625Q30.823528247070314,29.04396259765625,30.90572824707031,29.09896259765625Q30.98792824707031,29.15386259765625,31.075228247070314,29.200462597656248Q31.162428247070313,29.24716259765625,31.253828247070313,29.28496259765625Q31.345128247070313,29.32286259765625,31.439828247070313,29.351562597656248Q31.534428247070313,29.380262597656248,31.631428247070314,29.39956259765625Q31.728428247070312,29.41886259765625,31.826828247070313,29.42856259765625Q31.92532824707031,29.438262597656248,32.02422824707031,29.438262597656248Q32.12312824707031,29.438262597656248,32.22152824707031,29.42856259765625Q32.31992824707031,29.41886259765625,32.41692824707032,29.39956259765625Q32.51392824707031,29.380262597656248,32.60852824707031,29.351562597656248Q32.703228247070314,29.32286259765625,32.794628247070314,29.28496259765625Q32.88592824707031,29.24716259765625,32.97322824707031,29.200462597656248Q33.06042824707031,29.15386259765625,33.14262824707031,29.09896259765625Q33.22482824707031,29.04396259765625,33.301328247070316,28.98126259765625Q33.37772824707031,28.91846259765625,33.447728247070316,28.848562597656247Q33.51762824707031,28.77866259765625,33.58032824707031,28.702162597656248Q33.64312824707031,28.625762597656248,33.69802824707031,28.543562597656248Q33.75302824707031,28.46126259765625,33.799628247070316,28.37406259765625Q33.846228247070314,28.286862597656253,33.88412824707031,28.195462597656253Q33.92192824707031,28.104062597656252,33.95062824707031,28.009462597656253Q33.97932824707031,27.91486259765625,33.998628247070315,27.81786259765625Q34.017928247070316,27.72086259765625,34.02762824707031,27.62236259765625Q34.03732824707031,27.52396259765625,34.03732824707031,27.42506259765625L34.03732824707031,22.42003259765625Q34.03732824707031,21.03815259765625,32.841928247070314,20.34586259765625L22.878828247070313,14.57594259765625Q21.67872824707031,13.88097259765625,20.478728247070315,14.57594259765625L10.515570247070313,20.34586259765625Q9.320178247070313,21.03814259765625,9.320178247070313,22.42003259765625L9.320178247070313,33.959862597656254Q9.320178247070313,35.34176259765625,10.515579247070313,36.034062597656245L14.591218247070312,38.394362597656254Q14.676798247070312,38.44396259765625,14.766828247070313,38.484862597656246Q14.856858247070313,38.525762597656254,14.950468247070312,38.55766259765625Q15.044078247070313,38.58966259765625,15.140368247070313,38.61216259765625Q15.236648247070313,38.63476259765625,15.334688247070313,38.64786259765625Q15.432718247070312,38.66086259765625,15.531568247070313,38.66426259765625Q15.630408247070314,38.66756259765625,15.729098247070311,38.66126259765625Q15.827798247070312,38.65496259765625,15.925398247070312,38.638962597656246Q16.022998247070312,38.622962597656255,16.11855824707031,38.597462597656246Q16.214128247070313,38.57206259765625,16.30672824707031,38.537362597656255Q16.39933824707031,38.50256259765625,16.48809824707031,38.45896259765625Q16.576858247070312,38.415362597656255,16.660908247070314,38.363262597656245Q16.74496824707031,38.31116259765625,16.82350824707031,38.25106259765625Q16.90204824707031,38.19096259765625,16.97432824707031,38.12346259765625Q17.046598247070314,38.05586259765625,17.11190824707031,37.98166259765625Q17.17720824707031,37.907362597656245,17.234928247070314,37.82706259765625Q17.292638247070315,37.74676259765625,17.342208247070314,37.66116259765625Q17.391768247070313,37.57556259765625,17.432708247070313,37.485562597656255Q17.473638247070312,37.39556259765625,17.50555824707031,37.30186259765625Q17.53746824707031,37.20826259765625,17.560058247070312,37.11196259765625Q17.582638247070314,37.01576259765625,17.59567824707031,36.917662597656246Q17.608718247070314,36.81966259765625,17.61208824707031,36.72076259765625Q17.615458247070315,36.62196259765625,17.609118247070313,36.52326259765625Q17.60277824707031,36.42456259765625,17.586798247070313,36.32696259765625Q17.570818247070314,36.22936259765625,17.54534824707031,36.13376259765625Q17.519878247070313,36.03826259765625,17.485168247070312,35.94566259765625Q17.450448247070312,35.85306259765625,17.40682824707031,35.76426259765625Q17.36320824707031,35.67556259765625,17.311088247070312,35.591462597656246Q17.258978247070313,35.507362597656254,17.19887824707031,35.42886259765625Q17.138778247070313,35.35036259765625,17.07125824707031,35.278062597656245Q17.003748247070313,35.205762597656246,16.929478247070314,35.14046259765625Q16.855208247070312,35.075162597656245,16.77489824707031,35.01746259765625Q16.694588247070314,34.95976259765625,16.60899824707031,34.91016259765625L13.346478247070312,33.02076259765625L13.346478247070312,23.359152597656248L21.67872824707031,18.53371259765625L30.011028247070314,23.359152597656248Z" fill-rule="evenodd" fill="url(#master_svg1_3_1472)" fill-opacity="1"/></g><g><path d="M23.667721533203125,35.24590433105469L27.632621533203125,32.949734331054685Q27.718201533203125,32.90016433105469,27.798511533203126,32.84245433105469Q27.878831533203126,32.784734331054686,27.953101533203125,32.719434331054686Q28.027371533203123,32.65412433105469,28.094881533203125,32.581854331054686Q28.162391533203124,32.50957433105469,28.222491533203126,32.43103433105469Q28.282591533203124,32.352494331054686,28.334711533203127,32.268434331054685Q28.386821533203126,32.18438433105469,28.430441533203126,32.09562333105469Q28.474071533203123,32.00686533105469,28.508781533203127,31.914258331054686Q28.543501533203127,31.82165133105469,28.568971533203126,31.726088331054687Q28.594441533203124,31.630524331054687,28.610421533203123,31.532924331054687Q28.626401533203126,31.435324331054687,28.632731533203124,31.336628331054687Q28.639071533203126,31.23793223105469,28.635701533203125,31.139090131054687Q28.632341533203125,31.040248331054688,28.619301533203124,30.942211331054686Q28.606261533203124,30.844175331054686,28.583671533203123,30.747889331054687Q28.561091533203125,30.651603331054687,28.529171533203126,30.557995331054688Q28.497261533203126,30.464386331054687,28.456321533203123,30.37435733105469Q28.415381533203124,30.284327331054687,28.365821533203125,30.198743331054686Q28.316261533203125,30.113164331054687,28.258541533203125,30.032844331054687Q28.200831533203125,29.952534331054686,28.135521533203125,29.878264331054687Q28.070211533203125,29.80399433105469,27.997941533203125,29.736484331054687Q27.925671533203126,29.668974331054688,27.847121533203126,29.608874331054686Q27.768581533203125,29.548764331054688,27.684531533203124,29.49665433105469Q27.600471533203127,29.444544331054686,27.511711533203126,29.400914331054686Q27.422961533203125,29.35729433105469,27.330351533203125,29.32257433105469Q27.237741533203124,29.28786433105469,27.142181533203125,29.262394331054686Q27.046611533203126,29.236924331054688,26.949011533203127,29.22094433105469Q26.851411533203127,29.204964331054686,26.752721533203125,29.19862433105469Q26.654021533203125,29.192294331054686,26.555181533203125,29.195654331054687Q26.456341533203126,29.199024331054687,26.358301533203125,29.212064331054687Q26.260271533203124,29.225104331054688,26.163981533203124,29.24768433105469Q26.067691533203124,29.270274331054686,25.974081533203126,29.302194331054686Q25.880481533203124,29.334104331054686,25.790451533203125,29.37504433105469Q25.700421533203127,29.415974331054688,25.614831533203123,29.465544331054687L20.836813533203124,32.23261433105469Q19.641421533203125,32.92489433105469,19.641421533203125,34.306784331054686L19.641421533203125,45.84666433105469Q19.641421533203125,47.228564331054685,20.836822533203126,47.920764331054684L30.799981533203123,53.69076433105469Q31.999971533203123,54.385664331054684,33.20007153320313,53.69076433105469L43.163171533203126,47.920764331054684Q44.358571533203126,47.228564331054685,44.358571533203126,45.84666433105469L44.358571533203126,34.306784331054686Q44.358571533203126,32.92490433105469,43.163171533203126,32.23262433105469L38.340171533203126,29.439474331054686Q38.254571533203126,29.389904331054687,38.16457153320313,29.348974331054688Q38.07447153320312,29.30803433105469,37.98087153320313,29.276114331054686Q37.887271533203126,29.24420433105469,37.79097153320312,29.22161433105469Q37.69467153320312,29.199034331054687,37.59667153320312,29.185994331054687Q37.49867153320312,29.172954331054687,37.39977153320312,29.169584331054686Q37.300971533203125,29.166214331054686,37.202271533203124,29.172554331054688Q37.10357153320312,29.178894331054686,37.00597153320312,29.194874331054688Q36.90837153320312,29.210854331054687,36.812771533203126,29.23632433105469Q36.717271533203125,29.261794331054688,36.62467153320313,29.296504331054688Q36.53207153320312,29.33122433105469,36.443271533203124,29.37484433105469Q36.354471533203125,29.41847433105469,36.27047153320312,29.470584331054688Q36.18637153320313,29.522694331054687,36.107871533203124,29.58280433105469Q36.02927153320313,29.642904331054687,35.95707153320313,29.710414331054686Q35.88477153320312,29.777924331054688,35.81947153320313,29.852194331054687Q35.75417153320313,29.92646433105469,35.69647153320312,30.006774331054686Q35.638771533203126,30.087084331054687,35.58917153320313,30.172674331054687Q35.489771533203125,30.34425433105469,35.425771533203125,30.531924331054686Q35.36187153320313,30.719594331054687,35.335671533203126,30.91614133105469Q35.309571533203126,31.112687631054687,35.32227153320312,31.31055733105469Q35.334971533203124,31.508428331054688,35.385971533203126,31.70001733105469Q35.437071533203124,31.891607331054686,35.52457153320312,32.069553331054685Q35.611971533203125,32.247504331054685,35.732471533203125,32.404964331054686Q35.852971533203124,32.562424331054686,36.00187153320313,32.69336433105469Q36.15077153320313,32.82429433105469,36.322371533203125,32.923654331054685L40.33227153320313,35.24590433105469L40.33227153320313,44.90746433105468L31.999971533203123,49.73296433105469L23.667721533203125,44.90746433105468L23.667721533203125,35.24590433105469Z" fill-rule="evenodd" fill="url(#master_svg2_3_1466)" fill-opacity="1"/></g><g><path d="M50.65349956054688,33.02076259765625L47.12619956054687,35.06356259765625Q47.04059956054687,35.11306259765625,46.96029956054687,35.17086259765625Q46.87999956054688,35.22856259765625,46.80569956054688,35.29386259765625Q46.731399560546876,35.35916259765625,46.663899560546874,35.431362597656246Q46.59639956054687,35.503662597656245,46.53629956054687,35.58226259765625Q46.476199560546874,35.66076259765625,46.42409956054688,35.74486259765625Q46.371999560546875,35.828862597656254,46.328299560546874,35.917662597656246Q46.284699560546876,36.00636259765625,46.249999560546875,36.098962597656254Q46.215299560546875,36.19156259765625,46.189799560546874,36.28716259765625Q46.16429956054687,36.38276259765625,46.14839956054688,36.48036259765625Q46.13239956054687,36.57796259765625,46.12599956054687,36.67666259765625Q46.11969956054688,36.775362597656255,46.123099560546876,36.87416259765625Q46.12639956054687,36.97306259765625,46.139499560546874,37.07106259765625Q46.15249956054687,37.16906259765625,46.175099560546876,37.26536259765625Q46.19769956054687,37.36166259765625,46.22959956054687,37.45526259765625Q46.26149956054687,37.54886259765625,46.30249956054688,37.63886259765625Q46.34339956054687,37.72896259765625,46.392999560546876,37.81456259765625Q46.44249956054688,37.90006259765625,46.500199560546875,37.98046259765625Q46.557999560546875,38.06076259765625,46.623299560546876,38.134962597656255Q46.688599560546876,38.20926259765625,46.76079956054687,38.27676259765625Q46.83309956054688,38.344262597656254,46.91169956054688,38.404362597656245Q46.99019956054688,38.46446259765625,47.074299560546876,38.51656259765625Q47.15829956054687,38.568762597656246,47.24709956054687,38.61236259765625Q47.335799560546874,38.65596259765625,47.42839956054688,38.69066259765625Q47.520999560546876,38.72536259765625,47.616599560546874,38.75086259765625Q47.71219956054688,38.776362597656245,47.80979956054688,38.79236259765625Q47.90739956054688,38.80826259765625,48.00609956054687,38.81466259765625Q48.10479956054688,38.82096259765625,48.20359956054688,38.81756259765625Q48.302399560546874,38.81426259765625,48.400499560546876,38.80116259765625Q48.498499560546875,38.78816259765625,48.594799560546875,38.76556259765625Q48.691099560546874,38.742962597656245,48.784699560546876,38.71106259765625Q48.87829956054688,38.67916259765625,48.968299560546875,38.63826259765625Q49.058399560546874,38.597262597656254,49.14389956054687,38.547762597656245L53.484399560546876,36.034062597656245Q54.679799560546876,35.34176259765625,54.679799560546876,33.959862597656254L54.679799560546876,22.42003259765625Q54.679799560546876,21.03815259765625,53.484399560546876,20.34586259765625L43.52129956054688,14.57594259765625Q42.32119956054687,13.88097259765625,41.12119956054688,14.57594259765625L31.158041560546874,20.34586259765625Q29.962649560546875,21.03814259765625,29.962649560546875,22.42003259765625L29.962649560546875,27.42506259765625Q29.962649560546875,27.52396259765625,29.972349560546874,27.62236259765625Q29.982039560546873,27.72086259765625,30.001339560546874,27.81786259765625Q30.020629560546876,27.91486259765625,30.049339560546876,28.009462597656253Q30.078049560546877,28.104062597656252,30.115899560546875,28.195462597656253Q30.153739560546875,28.286862597656253,30.200359560546875,28.37406259765625Q30.246989560546876,28.46126259765625,30.301929560546874,28.543562597656248Q30.356879560546876,28.625762597656248,30.419619560546874,28.702162597656248Q30.482359560546875,28.77866259765625,30.552289560546875,28.848562597656247Q30.622219560546874,28.91846259765625,30.698669560546875,28.98126259765625Q30.775119560546877,29.04396259765625,30.857359560546875,29.09896259765625Q30.939589560546874,29.15386259765625,31.026809560546877,29.200462597656248Q31.114030560546876,29.24716259765625,31.205402560546876,29.28496259765625Q31.296773560546875,29.32286259765625,31.391414560546874,29.351562597656248Q31.486055560546873,29.380262597656248,31.583054560546874,29.39956259765625Q31.680053560546874,29.41886259765625,31.778476560546874,29.42856259765625Q31.876900060546873,29.438262597656248,31.975799560546875,29.438262597656248Q32.07469906054688,29.438262597656248,32.17312256054687,29.42856259765625Q32.271545560546876,29.41886259765625,32.36854456054687,29.39956259765625Q32.46554356054688,29.380262597656248,32.56018456054687,29.351562597656248Q32.654825560546875,29.32286259765625,32.74619656054688,29.28496259765625Q32.83756856054688,29.24716259765625,32.92478956054688,29.200462597656248Q33.01200956054687,29.15386259765625,33.094239560546875,29.09896259765625Q33.17647956054687,29.04396259765625,33.252929560546875,28.98126259765625Q33.329379560546876,28.91846259765625,33.399309560546875,28.848562597656247Q33.469239560546875,28.77866259765625,33.53197956054687,28.702162597656248Q33.59471956054688,28.625762597656248,33.649669560546876,28.543562597656248Q33.70460956054688,28.46126259765625,33.75123956054688,28.37406259765625Q33.797859560546875,28.286862597656253,33.83569956054688,28.195462597656253Q33.87354956054688,28.104062597656252,33.902259560546874,28.009462597656253Q33.93096956054688,27.91486259765625,33.950259560546876,27.81786259765625Q33.96955956054688,27.72086259765625,33.979249560546876,27.62236259765625Q33.98894956054688,27.52396259765625,33.98894956054688,27.42506259765625L33.98894956054688,23.359152597656248L42.32119956054687,18.53371259765625L50.65349956054688,23.359152597656248L50.65349956054688,33.02076259765625Z" fill-rule="evenodd" fill="url(#master_svg3_3_1472)" fill-opacity="1"/></g></g></svg>